<?xml version="1.0" encoding="utf-8"?>
<!-- Generator: Adobe Illustrator 25.2.1, SVG Export Plug-In . SVG Version: 6.00 Build 0)  -->
<svg version="1.1" id="Layer_1" xmlns="http://www.w3.org/2000/svg" xmlns:xlink="http://www.w3.org/1999/xlink" x="0px" y="0px"
	 viewBox="0 0 487.2 556.2" style="enable-background:new 0 0 487.2 556.2;" xml:space="preserve">
<style type="text/css">
	.st0{opacity:0.25;}
	.st1{fill:#FBCECD;}
	.st2{fill:#ABABAB;}
	.st3{fill:#3F3F3F;}
	.st4{fill:none;stroke:#ABABAB;stroke-linecap:round;stroke-linejoin:round;}
	.st5{fill:#FFFFFF;stroke:#263238;stroke-linecap:round;stroke-linejoin:round;}
	.st6{fill:#DBDBDB;stroke:#263238;stroke-linecap:round;stroke-linejoin:round;}
	.st7{fill:#263238;stroke:#263238;stroke-linecap:round;stroke-linejoin:round;}
	.st8{fill:#FFFFFF;}
	.st9{fill:#ED3A39;}
	.st10{fill:none;stroke:#000000;stroke-linecap:round;stroke-linejoin:round;}
	.st11{fill:#919191;stroke:#263238;stroke-linecap:round;stroke-linejoin:round;}
	.st12{fill:none;stroke:#263238;stroke-linecap:round;stroke-linejoin:round;}
	.st13{fill:#FFFFFF;stroke:#ED3A39;stroke-linecap:round;stroke-linejoin:round;}
	.st14{fill:#ED3A39;stroke:#ED3A39;stroke-linecap:round;stroke-linejoin:round;}
	.st15{fill:none;stroke:#ED3A39;stroke-linecap:round;stroke-linejoin:round;stroke-dasharray:4.03,4.03;}
	.st16{fill:none;stroke:#ED3A39;stroke-linecap:round;stroke-linejoin:round;stroke-dasharray:4,4;}
	.st17{fill:#242829;}
	.st18{fill:#263238;}
	.st19{fill:none;stroke:#808080;stroke-linecap:round;stroke-linejoin:round;}
	.st20{fill:#B2B2B2;stroke:#263238;stroke-linecap:round;stroke-linejoin:round;}
	.st21{fill:#B2B2B2;}
</style>
<g class="st0">
	<path class="st1" d="M251.1,406.9c32.4-31.9,89.9-39.4,120.7-50.1c28.2-9.7,83.8-41.8,93.6-74.3c9.8-32.5-3.8-72.8-34.9-86.5
		c-13.6-6-29-6.6-42.6-12.3c-43.7-18.4-51.5-76.9-83.5-111.9c-36.9-40.2-100.7-42.5-153-26.8c-33.2,10-65.9,27.2-85.3,55.9
		c-19.3,28.7-21.5,70.9,2.2,96.3c21.3,22.9,61.7,34.5,62.4,65.7c0.4,22-20.4,37.4-30.4,56.7c-15.9,30.3-2.1,70.4,25.3,90.7
		c27.4,20.3,65.5,22.9,98.4,13.6c10.4-3.4,19.7-9.3,27.2-17.3"/>
</g>
<path class="st2" d="M111.3,349.7C111.4,349.7,111.4,349.7,111.3,349.7c0-0.1,0-0.1,0-0.1c0,0,0,0,0-0.1c0,0,0,0-0.1,0
	c0,0,0,0-0.1,0s0,0-0.1,0c0,0,0,0-0.1,0c0,0,0,0,0,0.1c-4.6,11.1-8.3,22.5-11,34.2c-2.7,11.7-4.7,23.6-6,35.5l-0.9,9
	c-0.1,1.5-0.3,3-0.4,4.5l-0.2,4.5c-0.1,3-0.3,6-0.4,9l0.1,9l0.1,4.5c0.1,1.5,0.2,3,0.3,4.5c0.2,3,0.4,6,0.7,9
	c0.6,6,1.5,11.9,2.4,17.8c0,0,0,0.1,0.1,0.1c0,0,0.1,0,0.1,0c0,0,0.1,0,0.1,0c0,0,0-0.1,0-0.1l0,0c0-3-0.1-6-0.2-9
	c-0.1-3-0.4-6-0.3-8.9c0-3,0-6-0.1-8.9l-0.1-4.5l0.1-4.5v-8.9l0.2-8.9l0.1-4.5c0-1.5,0.2-3,0.3-4.5l0.5-8.9
	c1-11.9,2.7-23.7,5.1-35.4C103.9,372.4,107.1,360.9,111.3,349.7L111.3,349.7z"/>
<path class="st2" d="M112.6,396.4c0,0,0-0.1,0-0.1c0,0,0-0.1-0.1-0.1c0,0,0,0-0.1,0c0,0,0,0-0.1,0c0,0,0,0,0,0c0,0,0,0,0,0.1
	c-2.5,7.4-4.7,15-6.4,22.7c-1.7,7.7-2.9,15.5-3.7,23.3c-0.8,7.8-1.7,15.6-1.8,23.5c-0.2,7.9,0.1,15.7,0.8,23.6c0,0,0,0.1,0,0.1
	c0,0,0.1,0,0.1,0.1c0,0,0.1,0,0.1,0c0,0,0.1-0.1,0.1-0.1c0.9-7.8,1.5-15.6,2-23.4c0.5-7.8,0.6-15.6,1.1-23.4
	c0.5-7.8,1.4-15.5,2.8-23.2C108.8,411.6,110.5,404,112.6,396.4L112.6,396.4z"/>
<path class="st2" d="M138.5,412.9c0,0-0.1,0-0.1,0c0,0-0.1,0-0.1,0c-6.5,4.2-12.3,9.2-17.3,15.1c-2.5,2.9-4.8,6.1-6.8,9.4l-1.4,2.6
	l-1.1,2.7c-0.4,0.9-0.7,1.8-0.9,2.8c-0.3,0.9-0.6,1.9-0.8,2.8c-2,7.5-3.2,15.1-3.6,22.9c-0.4,7.7-0.1,15.4,0.9,23c0,0,0,0.1,0,0.1
	c0,0,0.1,0,0.1,0c0,0,0,0,0.1,0c0,0,0,0,0.1,0c0,0,0,0,0-0.1c0,0,0,0,0-0.1l2-22.8c0.8-7.5,1.3-15.1,2.9-22.5
	c0.2-0.9,0.5-1.8,0.7-2.7c0.2-0.9,0.5-1.8,0.8-2.7l0.9-2.6l1.2-2.4c1.8-3.3,3.9-6.5,6.2-9.4c4.6-6,10.1-11.4,16.2-15.8l0,0
	c0,0,0,0,0.1,0c0,0,0,0,0.1,0c0,0,0,0,0,0c0,0,0,0,0-0.1c0,0,0,0,0-0.1c0,0,0,0,0-0.1C138.6,412.9,138.6,412.9,138.5,412.9
	C138.6,412.9,138.5,412.9,138.5,412.9L138.5,412.9z"/>
<path class="st2" d="M126,442.2c-3.5,2.3-5.9,5.9-7.9,9.5c-1.9,3.7-3.4,7.6-4.4,11.6c-0.3,1-0.6,2-0.8,3l-0.7,3
	c-0.4,2-0.6,4-0.8,6.1c0,2.1-0.1,4.1,0,6.2c0.2,2,0.4,4.1,0.8,6.1c0,0,0,0.1,0,0.1c0,0,0,0,0.1,0.1c0,0,0,0,0.1,0c0,0,0,0,0.1,0
	c0,0,0,0,0,0c0,0,0,0,0-0.1c0.5-2,0.8-4,1.1-6.1c0.3-2,0.6-4,0.9-6c0.2-2,0.6-4,0.7-6s0.4-4,0.9-5.9c0.7-3.9,1.8-7.8,3.4-11.5
	c1.4-3.8,3.7-7.1,6.6-9.9l0,0c0,0,0-0.1,0-0.1c0,0,0-0.1,0-0.1C126.1,442.1,126.1,442.1,126,442.2C126,442.1,126,442.1,126,442.2
	L126,442.2z"/>
<path class="st2" d="M89.7,464.9c-0.9-10.1-2.5-20.1-4.1-30.1c-1.6-10-3.3-20-5.1-29.9c-1.8-9.9-3.8-19.9-6-29.8c0,0,0-0.1-0.1-0.1
	c0,0-0.1,0-0.1,0c0,0,0,0-0.1,0c0,0,0,0,0,0c0,0,0,0,0,0.1c0,0,0,0,0,0.1c1.7,10,3.3,20,4.8,30c1.5,10,2.9,20,4.2,30
	c1.3,10,2.2,20.1,3.5,30.1l3.7,30.1c0,0,0,0.1,0,0.1c0,0,0.1,0,0.1,0c0,0,0,0,0.1,0c0,0,0,0,0.1,0c0,0,0,0,0,0c0,0,0,0,0-0.1
	c0.1-2.5,0.1-5.1,0.2-7.6c0.1-2.5-0.1-5.1-0.1-7.6C90.5,475,90.1,470,89.7,464.9z"/>
<path class="st2" d="M83.6,464.8c-0.5-4-1.2-8-2-12l-1.4-5.9c-0.5-2-0.9-3.9-1.5-5.9c-2-7.8-4.6-15.5-7.7-23l-1.2-2.8l-1.4-2.7
	c-0.9-1.8-1.9-3.6-2.9-5.4c-2-3.5-4.4-6.8-7.3-9.7c0,0,0,0,0,0c0,0,0,0-0.1,0c0,0,0,0-0.1,0c0,0,0,0,0,0c0,0,0,0.1,0,0.1
	s0,0.1,0,0.1l0,0c2.7,3,4.9,6.3,6.7,9.9c0.9,1.8,1.8,3.6,2.6,5.4l1.2,2.8l1,2.8c2.8,7.5,5,15.2,6.7,23c0.9,3.9,1.5,7.9,2.3,11.8
	l1,5.9c0.3,2,0.8,3.9,1,5.9c0.6,3.9,1.4,7.9,2.1,11.8c0.7,4,1.3,7.9,2.2,11.9c0,0,0,0.1,0.1,0.1c0,0,0.1,0,0.1,0c0,0,0.1,0,0.1,0
	c0,0,0-0.1,0-0.1c0-4-0.1-8.1-0.3-12.1C84.5,472.8,84,468.8,83.6,464.8z"/>
<path class="st2" d="M75.3,465.3c-1.9-5.3-4-10.5-6.4-15.6c-2.4-5.1-5.1-10-8.1-14.8c0,0-0.1,0-0.1,0c0,0-0.1,0-0.1,0
	c0,0,0,0.1,0,0.1s0,0.1,0,0.1c2.6,4.9,4.9,10,6.9,15.2c2,5.2,3.9,10.4,5.5,15.8c1.6,5.3,2.7,10.8,4.1,16.1
	c1.4,5.3,2.7,10.8,4.3,16.2c0,0,0,0.1,0.1,0.1c0,0,0.1,0,0.1,0c0,0,0.1,0,0.1,0c0,0,0-0.1,0-0.1c0.1-5.6-0.5-11.3-1.6-16.8
	C78.9,476,77.3,470.6,75.3,465.3z"/>
<path class="st2" d="M74.9,483c-1-3.3-2.5-6.4-4.4-9.3c-1.8-3-4-5.7-6.5-8c-1.3-1.2-2.7-2.2-4.1-3.1c-1.5-0.9-3.1-1.6-4.7-2.1
	c0,0-0.1,0-0.1,0c0,0-0.1,0-0.1,0.1c0,0,0,0,0,0.1c0,0,0,0,0,0.1c0,0,0,0,0,0.1c0,0,0,0,0.1,0l0,0c3,1.4,5.6,3.5,7.8,6
	c2.2,2.5,4,5.2,5.4,8.2c1.5,2.9,2.3,6.1,3.7,9.1c0.6,1.5,1.2,3.1,1.9,4.6c0.6,1.6,1.3,3.2,2,4.7l0,0c0,0,0,0,0.1,0.1
	c0,0,0.1,0,0.1,0c0,0,0,0,0.1,0c0,0,0,0,0.1,0c0,0,0,0,0-0.1c0,0,0,0,0-0.1c0.1-1.7,0-3.5-0.2-5.2C75.7,486.3,75.3,484.6,74.9,483z"
	/>
<path class="st3" d="M75.5,389.6c0,0-16.6-3.8-20.4-21.7c-3.8-17.8,8.5-10.2-2.6-38.2c-11.1-28-8.5-34.4-4.7-42.5
	c3.9-8.1,5.9-5.5,9.3,5.1s15.7,27.2,20.4,58.2C82.3,381.5,75.5,389.6,75.5,389.6z"/>
<path class="st3" d="M108.2,359.4c0,0-11-3.8-11.5-24.6c-0.4-20.8,8.1-16.6,9.3-42.5c1.3-25.9,3-44.2,7.6-44.6
	c4.7-0.4,17,12.7,21.2,41.6c4.2,28.9-5.5,48-14,56.5C112.5,354.3,108.2,359.4,108.2,359.4z"/>
<path class="st3" d="M69.6,414.6c0,0-2.5-15.3-7.6-22.5c-5.1-7.2-16.2-13.6-23.4-27.6c-7.2-14-15.3-20.8-14.9-0.9
	c0.4,20,9.3,30.2,20.4,37C55.2,407.4,69.6,414.6,69.6,414.6z"/>
<path class="st3" d="M64.9,440.9c0,0-10.2-19.5-25-34c-14.8-14.5-26.8-21.7-22.5-14.4c4.3,7.2,9.3,6.8,16.6,19.5
	c7.2,12.7,5.1,22.1,15.3,29.3C59.4,448.6,64.9,440.9,64.9,440.9z"/>
<path class="st3" d="M63.6,466c-0.4-1.3-0.9-10.6-15.3-18.3c-14.4-7.6-28-4.7-26.3-0.9c1.7,3.8,10.6,10.2,19.5,14S63.6,466,63.6,466
	z"/>
<path class="st3" d="M107.4,415.5c0,0-6.4-8.1-3-25.1c3.4-17,11-12.7,19.5-21.7c8.5-8.9,6.8-10.2,15.3-19.5
	c8.5-9.3,16.1-14.4,19.5-10.6c3.3,3.8-1.7,15.7-6.8,22.5c-5.1,6.8-13.2,10.2-17,18.7c-3.9,8.5-2.1,22.1-11.9,28.5
	C113.2,414.7,107.4,415.5,107.4,415.5z"/>
<path class="st3" d="M128.6,420.2c0,0,15.3-17.4,26.3-30.2c11-12.7,15.3-22.5,15.7-14c0.4,8.5,3.8,15.3-5.1,26.3
	C156.6,413.4,128.6,420.2,128.6,420.2z"/>
<path class="st3" d="M120.5,448.2c0,0-0.4-6.8,23.8-22.5c24.2-15.7,34.4-18.7,31.8-12.3c-2.6,6.4-13.2,12.7-24.6,24.2
	C140.1,449,120.5,448.2,120.5,448.2z"/>
<path class="st4" d="M76.6,387.8c0,0-5.7-30.4-11.6-52.1s-9.7-34.8-9.7-34.8"/>
<path class="st4" d="M107.3,359.7c0,0,10.3-33,13.7-53c3.4-20-0.4-34.8-2.1-43.7"/>
<path class="st4" d="M68.2,414c-4.6-7.9-9.8-15.3-15.7-22.3c-9.3-11-16.6-17-20.8-27.6"/>
<path class="st4" d="M107.4,415.5c0,0,3.4-20.4,11.5-31c8.1-10.6,24.2-27.2,30.6-37.8"/>
<path class="st4" d="M62.6,465.6c0,0-14.3-9.3-24.5-14.4"/>
<path class="st2" d="M104.2,555.7H85.5c-1.6,0-3.2-0.5-4.5-1.4c-1.3-0.9-2.4-2.2-3-3.7c-6.1-14.6-22.4-56.9-12.6-68.9
	c9.4-11.4,49.7-11.4,59,0c9.8,12-6.5,54.2-12.6,68.9c-0.6,1.5-1.7,2.8-3,3.7C107.4,555.2,105.8,555.7,104.2,555.7L104.2,555.7z"/>
<path class="st5" d="M347.5,41.6v379.2c0,2.5-0.5,4.9-1.4,7.2c-0.9,2.3-2.3,4.4-4.1,6.1s-3.8,3.1-6.1,4.1c-2.3,1-4.8,1.4-7.2,1.4
	H164.9c-2.5,0-4.9-0.5-7.2-1.4c-2.3-0.9-4.4-2.3-6.1-4.1c-1.8-1.8-3.1-3.8-4.1-6.1c-0.9-2.3-1.4-4.8-1.4-7.2V41.6
	c0-2.5,0.5-4.9,1.4-7.2c0.9-2.3,2.3-4.4,4.1-6.1c1.8-1.8,3.8-3.1,6.1-4.1c2.3-0.9,4.7-1.4,7.2-1.4h70.3V23
	c1.8,6.3,5.8,10.4,10.3,10.4h2.6c4.5,0,8.5-4.1,10.3-10.4l0.1-0.2h70.4c2.5,0,4.9,0.5,7.2,1.4c2.3,0.9,4.4,2.3,6.1,4.1
	c1.8,1.8,3.1,3.8,4.1,6.1C347,36.7,347.5,39.1,347.5,41.6L347.5,41.6z"/>
<path class="st6" d="M347.9,49.7v-7.6c0-2.5-0.5-4.9-1.4-7.2c-0.9-2.3-2.3-4.4-4.1-6.1s-3.8-3.1-6.1-4.1c-2.3-0.9-4.7-1.4-7.2-1.4
	h-70.3l-0.1,0.2c-1.8,6.3-5.8,10.4-10.3,10.4h-2.6c-4.5,0-8.5-4.1-10.3-10.4v-0.2h-70.4c-2.5,0-4.9,0.5-7.2,1.4
	c-2.3,0.9-4.4,2.3-6.1,4.1c-1.8,1.8-3.1,3.8-4.1,6.1c-0.9,2.3-1.4,4.7-1.4,7.2v7.6L347.9,49.7z"/>
<path class="st6" d="M146,417.9v3c0,2.5,0.5,4.9,1.4,7.2c0.9,2.3,2.3,4.4,4.1,6.1c1.8,1.8,3.8,3.1,6.1,4.1c2.3,0.9,4.8,1.4,7.2,1.4
	h163.8c5,0,9.8-2,13.3-5.5c3.5-3.5,5.5-8.3,5.5-13.3v-3L146,417.9z"/>
<path class="st5" d="M360.3,132.2V94.3h-3.4V45.8c0-7.9-3.1-15.5-8.8-21.1c-5.6-5.6-13.2-8.8-21.1-8.8H166.5
	c-7.9,0-15.5,3.1-21.1,8.8s-8.8,13.2-8.8,21.1v385.4c0,3.9,0.8,7.8,2.3,11.4c1.5,3.6,3.7,6.9,6.5,9.7c2.8,2.8,6.1,5,9.7,6.5
	c3.6,1.5,7.5,2.3,11.4,2.3H327c3.9,0,7.8-0.8,11.4-2.3c3.6-1.5,6.9-3.7,9.7-6.5c2.8-2.8,5-6.1,6.5-9.7c1.5-3.6,2.3-7.5,2.3-11.4
	V164.6h3.4v-22.5h-3.4v-9.9H360.3z M347.5,409.8c0,3.9-0.8,7.8-2.3,11.5c-1.5,3.6-3.7,6.9-6.5,9.7c-2.8,2.8-6.1,5-9.7,6.5
	c-3.6,1.5-7.5,2.3-11.5,2.3H175.9c-3.9,0-7.8-0.8-11.5-2.3c-3.6-1.5-6.9-3.7-9.7-6.5c-2.8-2.8-5-6.1-6.5-9.7
	c-1.5-3.6-2.3-7.5-2.3-11.5V52.6c0-7.9,3.2-15.5,8.8-21.1s13.2-8.7,21.1-8.7h59.3V23c1.8,6.3,5.8,10.4,10.3,10.4h2.6
	c4.5,0,8.5-4.1,10.3-10.4l0.1-0.2h59.3c3.9,0,7.8,0.8,11.4,2.3c3.6,1.5,6.9,3.7,9.7,6.5c2.8,2.8,5,6.1,6.5,9.7
	c1.5,3.6,2.3,7.5,2.3,11.4L347.5,409.8z"/>
<path class="st7" d="M324.6,20H168.9c-3.8,0-7.5,0.7-11,2.2c-3.5,1.5-6.7,3.6-9.4,6.3s-4.8,5.9-6.2,9.4s-2.2,7.3-2.2,11.1v379.2
	c0,7.6,3,15,8.4,20.4c5.4,5.4,12.7,8.4,20.4,8.4h155.7c7.7,0,15-3,20.4-8.4c5.4-5.4,8.4-12.7,8.5-20.4V48.9c0-3.8-0.7-7.5-2.2-11
	c-1.4-3.5-3.6-6.7-6.2-9.4c-2.7-2.7-5.8-4.8-9.3-6.3C332.2,20.8,328.4,20,324.6,20L324.6,20z M347.5,410.8c0,3.8-0.7,7.5-2.2,11.1
	c-1.4,3.5-3.6,6.7-6.2,9.4c-2.7,2.7-5.9,4.8-9.4,6.3c-3.5,1.5-7.2,2.2-11,2.2H174.8c-3.8,0-7.5-0.7-11.1-2.2
	c-3.5-1.4-6.7-3.6-9.4-6.3c-2.7-2.7-4.8-5.9-6.3-9.4c-1.4-3.5-2.2-7.3-2.2-11.1V51.6c0-3.8,0.7-7.5,2.2-11c1.5-3.5,3.6-6.7,6.3-9.4
	c2.7-2.7,5.9-4.8,9.4-6.2c3.5-1.4,7.2-2.2,11-2.2h60.3V23c1.8,6.3,5.8,10.4,10.3,10.4h2.6c4.5,0,8.5-4.1,10.3-10.4l0.1-0.2h60.4
	c7.6,0,15,3,20.4,8.4c5.4,5.4,8.4,12.7,8.4,20.4V410.8z"/>
<path class="st8" d="M249,24.2c0-0.6-0.2-1.1-0.5-1.6c-0.3-0.5-0.8-0.8-1.3-1c-0.5-0.2-1.1-0.3-1.6-0.2c-0.5,0.1-1,0.4-1.4,0.8
	s-0.7,0.9-0.8,1.4c-0.1,0.5-0.1,1.1,0.2,1.6c0.2,0.5,0.6,1,1,1.3c0.5,0.3,1,0.5,1.6,0.5c0.4,0,0.7-0.1,1.1-0.2
	c0.3-0.1,0.7-0.3,0.9-0.6c0.3-0.3,0.5-0.6,0.6-0.9C248.9,24.9,249,24.5,249,24.2L249,24.2z"/>
<path class="st9" d="M319.4,290.2c0,9.9-8.1,18-18,18s-18-8.1-18-18c0-9.9,8.1-22.6,18-22C319.4,269.4,319.4,263.2,319.4,290.2z"/>
<path class="st10" d="M313,268.2H180.9c-3.6,0-6.5,2.9-6.5,6.5v46c0,3.6,2.9,6.5,6.5,6.5H313c3.6,0,6.5-2.9,6.5-6.5v-46
	C319.5,271.1,316.6,268.2,313,268.2z"/>
<path class="st5" d="M172.4,117.5h149.7v118.2c0,1.4-0.3,2.8-0.8,4.1s-1.3,2.5-2.3,3.5c-1,1-2.2,1.8-3.5,2.3
	c-1.3,0.5-2.7,0.8-4.1,0.8H183.2c-1.4,0-2.8-0.3-4.1-0.8c-1.3-0.5-2.5-1.3-3.5-2.3c-1-1-1.8-2.2-2.3-3.5s-0.8-2.7-0.8-4.1
	L172.4,117.5L172.4,117.5z"/>
<path class="st5" d="M322.1,117.5H172.4v11.1h149.7V117.5z"/>
<path class="st5" d="M197.7,137.4h-16.8v16.8h16.8V137.4z"/>
<path class="st11" d="M226.7,137.4h-16.8v16.8h16.8V137.4z"/>
<path class="st5" d="M255.7,137.4h-16.8v16.8h16.8V137.4z"/>
<path class="st11" d="M284.7,137.4h-16.8v16.8h16.8V137.4z"/>
<path class="st5" d="M313.7,137.4h-16.8v16.8h16.8V137.4z"/>
<path class="st11" d="M197.7,163h-16.8v16.8h16.8V163z"/>
<path class="st11" d="M226.7,163h-16.8v16.8h16.8V163z"/>
<path class="st5" d="M255.7,163h-16.8v16.8h16.8V163z"/>
<path class="st5" d="M284.7,163h-16.8v16.8h16.8V163z"/>
<path class="st5" d="M313.7,163h-16.8v16.8h16.8V163z"/>
<path class="st5" d="M197.7,188.5h-16.8v16.8h16.8V188.5z"/>
<path class="st5" d="M226.7,188.5h-16.8v16.8h16.8V188.5z"/>
<path class="st11" d="M255.7,188.5h-16.8v16.8h16.8V188.5z"/>
<path class="st5" d="M284.7,188.5h-16.8v16.8h16.8V188.5z"/>
<path class="st5" d="M313.7,188.5h-16.8v16.8h16.8V188.5z"/>
<path class="st5" d="M197.7,214h-16.8v16.8h16.8V214z"/>
<path class="st5" d="M226.7,214h-16.8v16.8h16.8V214z"/>
<path class="st5" d="M255.7,214h-16.8v16.8h16.8V214z"/>
<path class="st11" d="M284.7,214h-16.8v16.8h16.8V214z"/>
<path class="st11" d="M313.7,214h-16.8v16.8h16.8V214z"/>
<path class="st12" d="M170,366.1h157"/>
<path class="st12" d="M172.1,376h33.9"/>
<path class="st12" d="M172.1,381h33.9"/>
<path class="st12" d="M172.1,385.9h33.9"/>
<path class="st12" d="M172.1,390.9h33.9"/>
<path class="st12" d="M211.7,376h33.9"/>
<path class="st12" d="M211.7,381h33.9"/>
<path class="st12" d="M211.7,385.9h33.9"/>
<path class="st12" d="M211.7,390.9h33.9"/>
<path class="st12" d="M251.4,376h33.9"/>
<path class="st12" d="M251.4,381h33.9"/>
<path class="st12" d="M251.4,385.9h33.9"/>
<path class="st12" d="M251.4,390.9h33.9"/>
<path class="st12" d="M291,376h33.9"/>
<path class="st12" d="M291,381h33.9"/>
<path class="st12" d="M291,385.9h33.9"/>
<path class="st12" d="M291,390.9h33.9"/>
<path class="st12" d="M325,555.7h189.8"/>
<path class="st12" d="M-8.1,555.7h324.2"/>
<path class="st13" d="M460.1,81.5l-65.2,16.4l23.5,12.7L460.1,81.5z"/>
<path class="st14" d="M418.4,110.5l2,18.2l39.7-47.2L418.4,110.5z"/>
<path class="st13" d="M425.5,114.1l-5.1,14.6l39.7-47.2L425.5,114.1z"/>
<path class="st13" d="M460.1,81.5l-34.6,32.6l19.8,13.3L460.1,81.5z"/>
<path class="st12" d="M134.5,179.4l-2.1,1.2"/>
<path class="st15" d="M128.1,183c-22,12.6-49.9,30.5-76.1,52.9c-68.5,58.6,2.2,100.7,104.3,57.5c100.4-42.4,188.3-88.3,253.4-157.6"
	/>
<path class="st12" d="M411.4,134.1l1.6-1.8"/>
<path class="st16" d="M321.5,116c39.8-16,102-62.2,111.8-76.3c46.2-67.3-71.7-2.3-71.7-2.3"/>
<path class="st17" d="M188.5,96.6c-1,0-1.9-0.2-2.7-0.6c-0.8-0.4-1.4-1-1.9-1.8c-0.4-0.8-0.7-1.6-0.7-2.6c0-1,0.2-1.8,0.7-2.6
	c0.5-0.8,1.1-1.4,1.9-1.8c0.8-0.4,1.7-0.7,2.7-0.7c0.8,0,1.5,0.1,2.2,0.4c0.7,0.3,1.2,0.7,1.7,1.2l-1.2,1.1
	c-0.7-0.8-1.6-1.1-2.6-1.1c-0.7,0-1.3,0.1-1.8,0.4c-0.5,0.3-0.9,0.7-1.2,1.2c-0.3,0.5-0.4,1.1-0.4,1.8c0,0.7,0.1,1.3,0.4,1.8
	c0.3,0.5,0.7,0.9,1.2,1.2c0.5,0.3,1.1,0.4,1.8,0.4c1,0,1.9-0.4,2.6-1.2l1.2,1.1c-0.5,0.5-1,0.9-1.7,1.2
	C190,96.4,189.3,96.6,188.5,96.6z M198.2,88.9c0.9,0,1.7,0.3,2.3,0.8c0.6,0.6,0.8,1.4,0.8,2.4v4.3h-1.8v-4.1c0-0.7-0.1-1.1-0.5-1.5
	c-0.3-0.3-0.8-0.5-1.3-0.5c-0.6,0-1.2,0.2-1.5,0.6c-0.4,0.4-0.6,0.9-0.6,1.7v3.8H194V86h1.8v3.8c0.3-0.3,0.6-0.5,1.1-0.7
	C197.2,89,197.7,88.9,198.2,88.9z M210.6,92.7c0,0.1,0,0.3,0,0.5h-5.9c0.1,0.6,0.4,1,0.8,1.3c0.4,0.3,1,0.5,1.6,0.5
	c0.8,0,1.5-0.3,2-0.8l0.9,1.1c-0.3,0.4-0.8,0.7-1.3,0.9c-0.5,0.2-1.1,0.3-1.7,0.3c-0.8,0-1.5-0.2-2.2-0.5c-0.6-0.3-1.1-0.8-1.5-1.4
	c-0.3-0.6-0.5-1.2-0.5-2c0-0.7,0.2-1.4,0.5-2c0.3-0.6,0.8-1,1.4-1.4c0.6-0.3,1.2-0.5,2-0.5c0.7,0,1.4,0.2,1.9,0.5
	c0.6,0.3,1,0.8,1.4,1.4C210.5,91.3,210.6,92,210.6,92.7z M206.9,90.3c-0.6,0-1,0.2-1.4,0.5c-0.4,0.3-0.6,0.8-0.7,1.3h4.2
	c-0.1-0.5-0.3-1-0.7-1.3C207.9,90.4,207.4,90.3,206.9,90.3z M215.8,96.5c-0.8,0-1.5-0.2-2.1-0.5c-0.6-0.3-1.1-0.8-1.4-1.4
	c-0.4-0.6-0.5-1.2-0.5-2c0-0.7,0.2-1.4,0.5-2c0.3-0.6,0.8-1,1.4-1.4c0.6-0.3,1.3-0.5,2.1-0.5c0.7,0,1.4,0.1,1.9,0.4
	c0.6,0.3,1,0.7,1.3,1.3l-1.4,0.8c-0.2-0.3-0.5-0.6-0.8-0.8c-0.3-0.2-0.7-0.3-1.1-0.3c-0.6,0-1.2,0.2-1.6,0.6c-0.4,0.4-0.6,1-0.6,1.7
	c0,0.7,0.2,1.3,0.6,1.7c0.4,0.4,1,0.6,1.6,0.6c0.4,0,0.7-0.1,1.1-0.3c0.3-0.2,0.6-0.4,0.8-0.8l1.4,0.8c-0.3,0.6-0.7,1-1.3,1.3
	C217.1,96.4,216.5,96.5,215.8,96.5z M223.4,93.2l-1.3,1.2v2h-1.8V86h1.8v6.3l3.6-3.4h2.1l-3.1,3.1l3.4,4.3H226L223.4,93.2z
	 M239.7,94.2h-4.9l-1,2.3h-1.9l4.4-9.8h1.8l4.4,9.8h-1.9L239.7,94.2z M239.1,92.7l-1.8-4.3l-1.8,4.3H239.1z M250.3,89l-3.2,7.5h-1.8
	l-3.2-7.5h1.8l2.3,5.5l2.4-5.5H250.3z M254,88.9c1.1,0,1.9,0.3,2.5,0.8c0.6,0.5,0.9,1.3,0.9,2.4v4.4h-1.7v-0.9
	c-0.2,0.3-0.5,0.6-0.9,0.8c-0.4,0.2-0.9,0.3-1.4,0.3c-0.6,0-1-0.1-1.5-0.3c-0.4-0.2-0.8-0.5-1-0.8c-0.2-0.3-0.3-0.7-0.3-1.2
	c0-0.7,0.2-1.2,0.7-1.6c0.5-0.4,1.3-0.6,2.4-0.6h1.9v-0.1c0-0.5-0.2-0.9-0.5-1.2c-0.3-0.3-0.8-0.4-1.4-0.4c-0.4,0-0.8,0.1-1.2,0.2
	c-0.4,0.1-0.7,0.3-1,0.5l-0.7-1.3c0.4-0.3,0.9-0.5,1.4-0.7C252.8,88.9,253.4,88.9,254,88.9z M253.7,95.3c0.4,0,0.8-0.1,1.2-0.3
	c0.3-0.2,0.6-0.5,0.7-0.9v-0.9h-1.8c-1,0-1.5,0.3-1.5,1c0,0.3,0.1,0.6,0.4,0.8C253,95.2,253.3,95.3,253.7,95.3z M259.6,89h1.8v7.5
	h-1.8V89z M260.5,87.7c-0.3,0-0.6-0.1-0.8-0.3c-0.2-0.2-0.3-0.5-0.3-0.8c0-0.3,0.1-0.5,0.3-0.7c0.2-0.2,0.5-0.3,0.8-0.3
	c0.3,0,0.6,0.1,0.8,0.3c0.2,0.2,0.3,0.4,0.3,0.7c0,0.3-0.1,0.6-0.3,0.8C261.1,87.6,260.8,87.7,260.5,87.7z M263.7,86h1.8v10.4h-1.8
	V86z M270.6,88.9c1.1,0,1.9,0.3,2.5,0.8c0.6,0.5,0.9,1.3,0.9,2.4v4.4h-1.6v-0.9c-0.2,0.3-0.5,0.6-0.9,0.8c-0.4,0.2-0.9,0.3-1.4,0.3
	c-0.6,0-1-0.1-1.5-0.3c-0.4-0.2-0.8-0.5-1-0.8c-0.2-0.3-0.3-0.7-0.3-1.2c0-0.7,0.2-1.2,0.7-1.6c0.5-0.4,1.3-0.6,2.4-0.6h1.9v-0.1
	c0-0.5-0.2-0.9-0.5-1.2c-0.3-0.3-0.8-0.4-1.4-0.4c-0.4,0-0.8,0.1-1.2,0.2c-0.4,0.1-0.7,0.3-1,0.5l-0.7-1.3c0.4-0.3,0.9-0.5,1.4-0.7
	C269.4,88.9,270,88.9,270.6,88.9z M270.3,95.3c0.4,0,0.8-0.1,1.2-0.3c0.3-0.2,0.6-0.5,0.7-0.9v-0.9h-1.8c-1,0-1.5,0.3-1.5,1
	c0,0.3,0.1,0.6,0.4,0.8C269.5,95.2,269.9,95.3,270.3,95.3z M280.4,88.9c0.7,0,1.4,0.2,2,0.5c0.6,0.3,1,0.8,1.4,1.3
	c0.3,0.6,0.5,1.2,0.5,2c0,0.8-0.2,1.4-0.5,2c-0.3,0.6-0.8,1-1.4,1.3c-0.6,0.3-1.2,0.5-2,0.5c-0.5,0-1-0.1-1.4-0.3
	c-0.4-0.2-0.8-0.4-1.1-0.8v1h-1.7V86h1.8v3.8c0.3-0.3,0.7-0.6,1.1-0.7C279.4,89,279.9,88.9,280.4,88.9z M280.2,95
	c0.6,0,1.2-0.2,1.6-0.6c0.4-0.4,0.6-1,0.6-1.7c0-0.7-0.2-1.3-0.6-1.7c-0.4-0.4-0.9-0.6-1.6-0.6c-0.4,0-0.8,0.1-1.1,0.3
	c-0.3,0.2-0.6,0.5-0.8,0.8c-0.2,0.4-0.3,0.8-0.3,1.2c0,0.5,0.1,0.9,0.3,1.2c0.2,0.4,0.5,0.6,0.8,0.8C279.4,94.9,279.8,95,280.2,95z
	 M285.8,89h1.8v7.5h-1.8V89z M286.7,87.7c-0.3,0-0.6-0.1-0.8-0.3c-0.2-0.2-0.3-0.5-0.3-0.8c0-0.3,0.1-0.5,0.3-0.7
	c0.2-0.2,0.5-0.3,0.8-0.3c0.3,0,0.6,0.1,0.8,0.3c0.2,0.2,0.3,0.4,0.3,0.7c0,0.3-0.1,0.6-0.3,0.8C287.3,87.6,287,87.7,286.7,87.7z
	 M289.9,86h1.8v10.4h-1.8V86z M293.9,89h1.8v7.5h-1.8V89z M294.8,87.7c-0.3,0-0.6-0.1-0.8-0.3c-0.2-0.2-0.3-0.5-0.3-0.8
	c0-0.3,0.1-0.5,0.3-0.7c0.2-0.2,0.5-0.3,0.8-0.3c0.3,0,0.6,0.1,0.8,0.3c0.2,0.2,0.3,0.4,0.3,0.7c0,0.3-0.1,0.6-0.3,0.8
	C295.4,87.6,295.1,87.7,294.8,87.7z M302.5,96c-0.2,0.2-0.5,0.3-0.8,0.4c-0.3,0.1-0.6,0.1-0.9,0.1c-0.8,0-1.4-0.2-1.9-0.6
	c-0.4-0.4-0.7-1.1-0.7-1.9v-3.6H297V89h1.2v-1.7h1.8V89h2v1.4h-2V94c0,0.4,0.1,0.6,0.3,0.8c0.2,0.2,0.4,0.3,0.8,0.3
	c0.4,0,0.7-0.1,1-0.3L302.5,96z M310.8,89l-3.5,8.1c-0.3,0.8-0.7,1.4-1.2,1.7c-0.5,0.3-1,0.5-1.7,0.5c-0.4,0-0.7-0.1-1.1-0.2
	c-0.4-0.1-0.7-0.3-0.9-0.5l0.7-1.3c0.2,0.2,0.4,0.3,0.6,0.4c0.2,0.1,0.5,0.1,0.7,0.1c0.3,0,0.6-0.1,0.8-0.2c0.2-0.2,0.4-0.4,0.6-0.8
	l0.1-0.3l-3.3-7.5h1.8l2.3,5.5l2.4-5.5H310.8z"/>
<path class="st18" d="M217.3,293.6c-1,0-1.9-0.2-2.7-0.6c-0.8-0.4-1.4-1-1.9-1.8c-0.5-0.8-0.7-1.6-0.7-2.6c0-1,0.2-1.8,0.7-2.6
	c0.5-0.8,1.1-1.4,1.9-1.8c0.8-0.4,1.7-0.7,2.7-0.7c0.9,0,1.6,0.1,2.3,0.4c0.7,0.3,1.3,0.7,1.7,1.3l-1.4,1.3
	c-0.7-0.8-1.5-1.1-2.5-1.1c-0.6,0-1.1,0.1-1.6,0.4c-0.5,0.3-0.8,0.6-1.1,1.1c-0.3,0.5-0.4,1-0.4,1.6c0,0.6,0.1,1.1,0.4,1.6
	c0.3,0.5,0.6,0.9,1.1,1.1c0.5,0.3,1,0.4,1.6,0.4c1,0,1.8-0.4,2.5-1.2l1.4,1.3c-0.5,0.6-1,1-1.7,1.3
	C219,293.4,218.2,293.6,217.3,293.6z M227.5,293.6c-1,0-1.9-0.2-2.8-0.7c-0.8-0.4-1.5-1-1.9-1.8c-0.5-0.8-0.7-1.6-0.7-2.6
	c0-1,0.2-1.8,0.7-2.6c0.5-0.8,1.1-1.4,1.9-1.8c0.8-0.4,1.7-0.7,2.8-0.7c1,0,1.9,0.2,2.7,0.7c0.8,0.4,1.4,1,1.9,1.8
	c0.5,0.8,0.7,1.6,0.7,2.6c0,1-0.2,1.8-0.7,2.6c-0.5,0.8-1.1,1.4-1.9,1.8C229.4,293.3,228.5,293.6,227.5,293.6z M227.5,291.6
	c0.6,0,1.1-0.1,1.6-0.4c0.5-0.3,0.8-0.6,1.1-1.1c0.3-0.5,0.4-1,0.4-1.6c0-0.6-0.1-1.1-0.4-1.6c-0.3-0.5-0.6-0.8-1.1-1.1
	c-0.5-0.3-1-0.4-1.6-0.4c-0.6,0-1.1,0.1-1.6,0.4c-0.5,0.3-0.8,0.6-1.1,1.1c-0.3,0.5-0.4,1-0.4,1.6c0,0.6,0.1,1.1,0.4,1.6
	c0.3,0.5,0.6,0.9,1.1,1.1C226.4,291.5,226.9,291.6,227.5,291.6z M243.5,283.6v9.8h-1.9l-4.9-5.9v5.9h-2.2v-9.8h1.9l4.9,6v-6H243.5z
	 M248.1,285.4v2.6h4.5v1.8h-4.5v3.6h-2.3v-9.8h7.4v1.8H248.1z M254.8,283.6h2.3v9.8h-2.3V283.6z M265.6,293.4l-1.9-2.7h-0.1h-2v2.7
	h-2.3v-9.8h4.2c0.9,0,1.6,0.1,2.2,0.4c0.6,0.3,1.1,0.7,1.5,1.2c0.4,0.5,0.5,1.2,0.5,1.9s-0.2,1.4-0.5,1.9c-0.3,0.5-0.8,0.9-1.5,1.2
	l2.2,3.1H265.6z M265.6,287.1c0-0.5-0.2-1-0.5-1.3c-0.3-0.3-0.9-0.4-1.6-0.4h-1.8v3.4h1.8c0.7,0,1.2-0.1,1.6-0.4
	C265.4,288.1,265.6,287.7,265.6,287.1z M278.6,293.4l0-5.9l-2.9,4.8h-1l-2.9-4.7v5.8h-2.1v-9.8h1.9l3.7,6.1l3.6-6.1h1.9l0,9.8H278.6
	z M233.7,310.6c-1,0-1.9-0.2-2.7-0.6c-0.8-0.4-1.4-1-1.9-1.8c-0.5-0.8-0.7-1.6-0.7-2.6c0-1,0.2-1.8,0.7-2.6c0.5-0.8,1.1-1.4,1.9-1.8
	c0.8-0.4,1.7-0.7,2.7-0.7c0.8,0,1.6,0.1,2.3,0.4c0.7,0.3,1.3,0.7,1.7,1.3l-1.5,1.3c-0.7-0.8-1.5-1.1-2.5-1.1c-0.6,0-1.2,0.1-1.6,0.4
	c-0.5,0.3-0.8,0.6-1.1,1.1c-0.3,0.5-0.4,1-0.4,1.6c0,0.6,0.1,1.1,0.4,1.6c0.3,0.5,0.7,0.9,1.1,1.1c0.5,0.3,1,0.4,1.6,0.4
	c1,0,1.8-0.4,2.5-1.2l1.5,1.3c-0.5,0.6-1,1-1.7,1.3C235.3,310.4,234.5,310.6,233.7,310.6z M245.5,308.3H241l-0.9,2.1h-2.3l4.4-9.8
	h2.2l4.4,9.8h-2.4L245.5,308.3z M244.8,306.6l-1.6-3.8l-1.5,3.8H244.8z M249.8,300.6h2.3v8h4.9v1.8h-7.2V300.6z M258.2,300.6h2.3v8
	h4.9v1.8h-7.2V300.6z"/>
<path class="st5" d="M402.8,537.4c0,0-5.4,7.4-7.8,8.4c-2.4,1-6.8,1.7-8.1,4.7c-0.8,1.5-1.2,3.1-1.3,4.7H419c0,0,1.3-4.4,0-7.1
	c-0.8-1.7-1.4-3.5-1.7-5.4L402.8,537.4z"/>
<path class="st5" d="M419.6,551.9h-33.2c-0.5,1.1-0.7,2.2-0.8,3.4h33.5C419.4,554.2,419.6,553.1,419.6,551.9L419.6,551.9z"/>
<path class="st5" d="M438.7,544.8l0.7,10.8h16.2c0.4-2,0.3-4.1-0.3-6.1c-1-3-2-5.7-2-5.7L438.7,544.8z"/>
<path class="st5" d="M439.3,555.7h16.2c0.2-1.3,0.3-2.7,0.1-4.1h-16.6L439.3,555.7z"/>
<path class="st7" d="M389.7,379.9c0,0,2.7,35.1,3.4,47.6c0.7,12.5,9.7,109.9,9.7,109.9s13.2,8.1,14.9,8.1c1.7,0,3.7-117.3,3.7-117.3
	l17.2,116.6c1.9,0.6,3.8,0.9,5.7,1c2.7,0,8.8-2,8.8-2l-5.7-140.6v-23.3c0,0-34.1,4.7-43.2,3.4C399.3,382.6,394.4,381.5,389.7,379.9
	L389.7,379.9z"/>
<path class="st19" d="M430.9,401.2l-7.4,5.7l-2,21.3"/>
<path class="st20" d="M434,237.1c0,0-13.8-1.7-17.8,3c-4,4.7-4.9,13.9-7.7,16c-2.8,2.2-4.4-0.5-5.6,2.3c-1.2,2.8,0.8,6.4,0.8,6.4
	s-0.3,13.7,1.2,14.4c1.6,0.7,8.5,0.7,8.5,0.7l-1.1,5.6l17.4,0.7l1.5-5.9c0,0,13.3-7.7,16.8-13.5c3.6-5.8,2.7-18.8-0.8-23.3
	C443.6,239,434,237.1,434,237.1z"/>
<path class="st18" d="M412.6,255.4c-0.4,1-1.1,1.7-1.5,1.6c-0.4-0.2-0.4-1.2,0-2.2c0.4-1,1.1-1.7,1.5-1.6
	C413,253.4,413,254.4,412.6,255.4z"/>
<path class="st12" d="M405,267c0.7,0.4,1.6,0.5,2.3,0.2c0.8-0.2,1.5-0.7,1.9-1.4"/>
<path class="st12" d="M412.8,250.6c0,0,1.8-1,2,2"/>
<path class="st7" d="M447.1,243.5c-3.6-4.5-13.2-6.4-13.2-6.4s-13.8-1.7-17.8,3c0,0,7.6-1.9,6.6,1.3c-1,3.3-8.9,8.2-6.2,10.1
	c2.7,1.9,5.8,0.5,4.5,3.3c-1.3,2.8-2.8,5.6-1.5,5.9c1.3,0.3,5-2.8,6.6-2.1c1.6,0.7,3.4,5.5,1.9,8c-1,1.5-2.6,2.6-4.4,2.9
	c0,0,2.7,7.1,5.1,9c1,0.8,2.3,1.2,3.7,1.1c3.4-2.1,12.7-8,15.6-12.8C451.6,261,450.7,248,447.1,243.5z"/>
<path class="st5" d="M388.1,380.6l1,7.8c0,0,4.9,5.2,18.7,5.5c13.9,0.3,31-1.3,35.2-2.6c4.2-1.3,5.2-2.6,5.2-2.6l-0.8-8.8
	C447.5,379.9,422,388.7,388.1,380.6z"/>
<path class="st20" d="M450.4,399.7c0,0-1,4-1.3,5.1c-0.2,1.2,0.5,9.7,0.5,11c0,1.2,1.2,2.4,2.2,1.4c0,0,1.2,4.3,2.6,4.1
	c1.4-0.2,6-5.2,6.9-9.5c1-4.3-0.2-11.2-0.2-11.2L450.4,399.7z"/>
<path class="st21" d="M452.2,405.8c0.3,1.2,0.8,2.2,1.7,3.1l1.2,1l0.7,4.3c0,0-0.5,2.6-0.7,4.1"/>
<path class="st12" d="M452.2,405.8c0.3,1.2,0.8,2.2,1.7,3.1l1.2,1l0.7,4.3c0,0-0.5,2.6-0.7,4.1"/>
<path class="st12" d="M451.7,417.3l0.2-6.2"/>
<path class="st5" d="M450.4,394.4c0,0,0.1,3.5,0,5.3c-0.1,1.8,3.5,4.7,8,3.6c4.5-1.1,4.6-10,4.6-10S456.8,397.9,450.4,394.4z"/>
<path class="st5" d="M448,295.4c0,0,9.8,6.4,12.5,11.3c2.6,4.9,9.1,51,9.8,55.9c0.8,4.9-6.1,30.6-7.2,34c-1.1,3.4-7.2,2.8-9.4,1.9
	c-1.3-0.6-2.4-1.4-3.2-2.6c-0.8-1.1-1.3-2.5-1.4-3.8l-1.1-22.7V295.4z"/>
<path class="st5" d="M452.4,350.6c0.5-16.7,1.4-32.4,1.6-35.1c0.3-3.2,0-11.8-2.2-16.9c-3.1-3-6.6-5.6-10.4-7.5
	c-1.2-0.4-2.5-0.7-3.8-1l1.1-0.3c-1.9-0.8-3.8-1.5-5.8-2c-5.1-1.4-18.6-2-22.6,1.7c0,0-11.7,3.7-17.5,7.9c-2.9,3.6-4.7,8-5.2,12.6
	c-0.8,8.3-3,57.3-3,57.3s-2.7,8.1,0.7,12.2c3.4,4.1,10.5,10.1,31.1,9.5c20.6-0.7,30.4-3.4,33.2-6c0.8-1,1.4-2.2,1.7-3.4
	c1-3.2,1.5-6.5,1.4-9.9C452.5,363,452.3,350.6,452.4,350.6z"/>
<path class="st5" d="M406.6,290.7c1.4-2,3-3.9,4.7-5.7c1-0.7,15.5-4.1,19.9-2.7c4.4,1.4,6.4,7.8,6.4,7.8
	C427.3,288.8,416.8,289,406.6,290.7z"/>
<path class="st20" d="M325.6,306.1c0,0-2.1-4.6-3.3-7.1c-1.2-2.5-10.4-9.4-12.3-11.7c-1.8-2.3-4.1-1.2-4.3,0.8
	c-0.2,2,1.8,4.3,2.4,5.1c0.6,0.8,2,2.9,2,2.9s-5.3,3.5-5.7,4.5c-0.4,1,0.8,5.1,1.2,6.6c0.4,1.4,1,2.9,2.1,2.9h1c0,0,1.8,1.4,3.1,2.3
	s5.4,0.8,5.4,0.8l3,1.7C320.2,314.8,321.7,308.9,325.6,306.1z"/>
<path class="st8" d="M308.7,310.1c-0.5-1.2-0.8-2.5-0.8-3.9L308.7,310.1z"/>
<path class="st12" d="M308.7,310.1c-0.5-1.2-0.8-2.5-0.8-3.9"/>
<path class="st5" d="M331.5,308.9c0,0-3.9-1.8-5.9-2.8c-2-1-7.1,1.4-8.3,7s8.6,10.5,8.6,10.5S324.2,314.2,331.5,308.9z"/>
<path class="st8" d="M406.6,290.7c0,0-18.3,6.6-20.5,8.1c-2.2,1.5-23.8,26.8-23.8,26.8s-25.6-14.5-29-16.4
	c-3.4-1.9-9.2-1.4-10.7,4.3s-0.4,10.2,4.2,13.6s33.2,23,37.4,24.5c4.2,1.5,14.7-6.1,14.7-6.1l19.6-17.4"/>
<path class="st12" d="M406.6,290.7c0,0-18.3,6.6-20.5,8.1c-2.2,1.5-23.8,26.8-23.8,26.8s-25.6-14.5-29-16.4
	c-3.4-1.9-9.2-1.4-10.7,4.3s-0.4,10.2,4.2,13.6s33.2,23,37.4,24.5c4.2,1.5,14.7-6.1,14.7-6.1l19.6-17.4"/>
</svg>
