<?xml version="1.0" encoding="utf-8"?>
<!-- Generator: Adobe Illustrator 25.2.1, SVG Export Plug-In . SVG Version: 6.00 Build 0)  -->
<svg version="1.1" id="Layer_1" xmlns="http://www.w3.org/2000/svg" xmlns:xlink="http://www.w3.org/1999/xlink" x="0px" y="0px"
	 viewBox="0 0 1441 1420.8" style="enable-background:new 0 0 1441 1420.8;" xml:space="preserve">
<style type="text/css">
	.st0{fill:#FFFFFF;stroke:#000000;stroke-miterlimit:10;}
	.st1{fill:#F26867;}
	.st2{fill:#EE3A39;}
	.st3{fill:none;stroke:#EE3A39;stroke-miterlimit:10;}
	.st4{fill:none;stroke:#EE3A39;stroke-width:1.5;stroke-miterlimit:10;}
	.st5{fill:#8F9294;}
</style>
<rect x="-45.4" y="-35.8" class="st0" width="1537.7" height="1537.7"/>
<g>
	<g>
		<path class="st1" d="M129.3,695.2c68.5,18.4,121.1,57.6,170.8,101.3c47.8,42,95.3,86.2,157.7,111.8
			c128.4,52.7,279.2,25.9,405-19.2c140.5-50.5,272.7-126.4,424.5-148.5c74.5-10.9,154.4-5.8,219.2,30.8
			c53.8,30.2,82.9,78.1,95.1,131.9c6.9,30.6,9.3,61.7,11.1,92.8h16.3c-0.5-8.8-1.1-17.6-1.8-26.4c-4.3-51-12.2-103.8-42.8-148.4
			c-34.7-50.6-94.4-83.3-159.4-95.1c-79.4-14.2-163.5,0-239.3,22.1c-73,21.3-142.2,51.3-211.4,80.5
			c-132,55.8-278.3,112.4-428.5,88.9c-35.2-5.3-69.2-15.8-100.4-31c-30.7-15.2-57.8-35.1-83.3-56.4
			c-49.8-41.5-94.9-88.8-154.5-120.2c-62.3-32.6-135-46.7-207.2-40.2H0v14.6C43.5,680.4,87.5,684,129.3,695.2z"/>
	</g>
</g>
<g>
	<g>
		<g>
			<path class="st2" d="M1568.1,1917.1c6.9,30.6,38.4-938.7,40.2-907.6h16.3c-0.5-8.8-1.1-17.6-1.8-26.4
				c-4.3-51-12.2-103.8-42.8-148.4c-34.7-50.6-94.4-83.3-159.4-95.1c-79.4-14.2-163.5,0-239.3,22.1c-73,21.3-142.2,51.3-211.4,80.5
				c-132,55.8-278.3,112.4-428.5,88.9c-35.2-5.3-69.2-15.8-100.4-31c-30.7-15.2-57.8-35.1-83.3-56.4
				c-49.8-41.5-94.9-88.8-154.5-120.2c-62.3-32.6-135-46.7-207.2-40.2h-0.4v1233.8C39,1913,1555.9,1863.3,1568.1,1917.1z"/>
		</g>
	</g>
</g>
<g>
	<path class="st3" d="M44.6,187.4c66.7,0,120.6-54.1,120.6-120.6C165.4,0.1,111.3-54,44.6-54C-21.9-54-76,0.1-76,66.6
		C-76,133.3-21.9,187.4,44.6,187.4z"/>
	<path class="st3" d="M44.6,169.1c56.5,0,102.5-45.8,102.5-102.5c0-56.5-45.8-102.4-102.4-102.4S-57.8,10-57.8,66.6
		C-57.7,123.3-11.9,169.1,44.6,169.1z"/>
</g>
<path class="st4" d="M131.1,272.9v18.4"/>
<path class="st4" d="M140.2,282.1h-18.4"/>
<path class="st4" d="M131.1,309.7V328"/>
<path class="st4" d="M140.2,318.8h-18.4"/>
<path class="st4" d="M93.2,272.9v18.4"/>
<path class="st4" d="M102.4,282.1H84"/>
<path class="st4" d="M93.2,309.7V328"/>
<path class="st4" d="M102.4,318.8H84"/>
<path class="st4" d="M93.2,347.4v18.4"/>
<path class="st4" d="M102.4,356.6H84"/>
<path class="st4" d="M93.2,384.1v18.4"/>
<path class="st4" d="M102.4,393.3H84"/>
<path class="st4" d="M55.4,347.4v18.4"/>
<path class="st4" d="M64.6,356.6H46.2"/>
<path class="st4" d="M55.4,384.1v18.4"/>
<path class="st4" d="M64.6,393.3H46.2"/>
<path class="st5" d="M1321.5,371.2c0-1.1-0.8-1.9-1.9-1.9s-1.9,0.8-1.9,1.9s0.8,1.9,1.9,1.9S1321.5,372.2,1321.5,371.2z"/>
<path class="st5" d="M1319.6,341.7c0.4,0,0.8,0.1,1.1,0.3c0.3,0.2,0.5,0.5,0.7,0.8c0.2,0.4,0.2,0.8,0.1,1.1c-0.1,0.4-0.2,0.7-0.5,1
	c-0.2,0.2-0.6,0.5-1,0.5s-0.8,0-1.1-0.1c-0.4-0.2-0.6-0.4-0.8-0.7s-0.3-0.7-0.3-1.1c0-0.5,0.2-1,0.5-1.4
	C1318.6,341.9,1319.1,341.7,1319.6,341.7z"/>
<path class="st5" d="M1321.5,316.1c0-1.1-0.8-1.9-1.9-1.9s-1.9,0.8-1.9,1.9s0.8,1.9,1.9,1.9S1321.5,317.1,1321.5,316.1z"/>
<path class="st5" d="M1321.5,288.6c0-1.1-0.8-1.9-1.9-1.9s-1.9,0.8-1.9,1.9s0.8,1.9,1.9,1.9S1321.5,289.6,1321.5,288.6z"/>
<path class="st5" d="M1321.5,261c0-1.1-0.8-1.9-1.9-1.9s-1.9,0.8-1.9,1.9s0.8,1.9,1.9,1.9S1321.5,262,1321.5,261z"/>
<path class="st5" d="M1321.5,233.4c0-1.1-0.8-1.9-1.9-1.9s-1.9,0.8-1.9,1.9c0,1.1,0.8,1.9,1.9,1.9S1321.5,234.5,1321.5,233.4z"/>
<path class="st5" d="M1321.5,205.9c0-1.1-0.8-1.9-1.9-1.9s-1.9,0.8-1.9,1.9c0,1.1,0.8,1.9,1.9,1.9S1321.5,207,1321.5,205.9z"/>
<path class="st5" d="M1340.1,371.2c0-1.1-0.8-1.9-1.9-1.9s-1.9,0.8-1.9,1.9s0.8,1.9,1.9,1.9S1340.1,372.2,1340.1,371.2z"/>
<path class="st5" d="M1338.2,341.7c0.4,0,0.8,0.1,1.1,0.3c0.3,0.2,0.5,0.5,0.7,0.8c0.2,0.4,0.2,0.8,0.1,1.1c-0.1,0.4-0.2,0.7-0.5,1
	c-0.2,0.2-0.6,0.5-1,0.5c-0.4,0.1-0.8,0-1.1-0.1c-0.4-0.2-0.6-0.4-0.8-0.7c-0.2-0.3-0.3-0.7-0.3-1.1c0-0.5,0.2-1,0.5-1.4
	C1337.2,341.9,1337.8,341.7,1338.2,341.7z"/>
<path class="st5" d="M1340.1,316.1c0-1.1-0.8-1.9-1.9-1.9s-1.9,0.8-1.9,1.9s0.8,1.9,1.9,1.9S1340.1,317.1,1340.1,316.1z"/>
<path class="st5" d="M1340.1,288.6c0-1.1-0.8-1.9-1.9-1.9s-1.9,0.8-1.9,1.9s0.8,1.9,1.9,1.9S1340.1,289.6,1340.1,288.6z"/>
<path class="st5" d="M1340.1,261c0-1.1-0.8-1.9-1.9-1.9s-1.9,0.8-1.9,1.9s0.8,1.9,1.9,1.9C1339.3,262.9,1340.1,262,1340.1,261z"/>
<path class="st5" d="M1340.1,233.4c0-1.1-0.8-1.9-1.9-1.9s-1.9,0.8-1.9,1.9c0,1.1,0.8,1.9,1.9,1.9S1340.1,234.5,1340.1,233.4z"/>
<path class="st5" d="M1340.1,205.9c0-1.1-0.8-1.9-1.9-1.9s-1.9,0.8-1.9,1.9c0,1.1,0.8,1.9,1.9,1.9S1340.1,207,1340.1,205.9z"/>
<path class="st5" d="M1358.7,371.2c0-1.1-0.8-1.9-1.9-1.9s-1.9,0.8-1.9,1.9s0.8,1.9,1.9,1.9C1357.9,373.1,1358.7,372.2,1358.7,371.2
	z"/>
<path class="st5" d="M1356.9,341.7c0.5,0,1,0.2,1.4,0.5c0.4,0.4,0.5,0.8,0.5,1.4c0,0.5-0.2,1-0.5,1.4c-0.4,0.4-0.8,0.5-1.4,0.5
	c-0.5,0-1-0.2-1.4-0.5c-0.4-0.4-0.5-0.8-0.5-1.4s0.2-1,0.5-1.4C1355.9,341.9,1356.4,341.7,1356.9,341.7z"/>
<path class="st5" d="M1358.7,316.1c0-1.1-0.8-1.9-1.9-1.9s-1.9,0.8-1.9,1.9s0.8,1.9,1.9,1.9C1357.9,318,1358.7,317.1,1358.7,316.1z"
	/>
<path class="st5" d="M1358.7,288.6c0-1.1-0.8-1.9-1.9-1.9s-1.9,0.8-1.9,1.9s0.8,1.9,1.9,1.9C1357.9,290.5,1358.7,289.6,1358.7,288.6
	z"/>
<path class="st5" d="M1358.7,261c0-1.1-0.8-1.9-1.9-1.9s-1.9,0.8-1.9,1.9s0.8,1.9,1.9,1.9C1357.9,262.9,1358.7,262,1358.7,261z"/>
<path class="st5" d="M1358.7,233.4c0-1.1-0.8-1.9-1.9-1.9s-1.9,0.8-1.9,1.9c0,1.1,0.8,1.9,1.9,1.9
	C1357.9,235.3,1358.7,234.5,1358.7,233.4z"/>
<path class="st5" d="M1358.7,205.9c0-1.1-0.8-1.9-1.9-1.9s-1.9,0.8-1.9,1.9c0,1.1,0.8,1.9,1.9,1.9
	C1357.9,207.8,1358.7,207,1358.7,205.9z"/>
<path class="st5" d="M1377.4,371.2c0-1.1-0.8-1.9-1.9-1.9s-1.9,0.8-1.9,1.9s0.8,1.9,1.9,1.9C1376.5,373.1,1377.4,372.2,1377.4,371.2
	z"/>
<path class="st5" d="M1375.5,341.7c0.5,0,1,0.2,1.4,0.5c0.4,0.4,0.5,0.8,0.5,1.4c0,0.5-0.2,1-0.5,1.4c-0.4,0.4-0.8,0.5-1.4,0.5
	c-0.5,0-1-0.2-1.4-0.5c-0.4-0.4-0.5-0.8-0.5-1.4s0.2-1,0.5-1.4C1374.5,341.9,1375,341.7,1375.5,341.7z"/>
<path class="st5" d="M1377.4,316.1c0-1.1-0.8-1.9-1.9-1.9s-1.9,0.8-1.9,1.9s0.8,1.9,1.9,1.9C1376.5,318,1377.4,317.1,1377.4,316.1z"
	/>
<path class="st5" d="M1377.4,288.6c0-1.1-0.8-1.9-1.9-1.9s-1.9,0.8-1.9,1.9s0.8,1.9,1.9,1.9C1376.5,290.5,1377.4,289.6,1377.4,288.6
	z"/>
<path class="st5" d="M1377.4,261c0-1.1-0.8-1.9-1.9-1.9s-1.9,0.8-1.9,1.9s0.8,1.9,1.9,1.9C1376.5,262.9,1377.4,262,1377.4,261z"/>
<path class="st5" d="M1377.4,233.4c0-1.1-0.8-1.9-1.9-1.9s-1.9,0.8-1.9,1.9c0,1.1,0.8,1.9,1.9,1.9
	C1376.5,235.3,1377.4,234.5,1377.4,233.4z"/>
<path class="st5" d="M1377.4,205.9c0-1.1-0.8-1.9-1.9-1.9s-1.9,0.8-1.9,1.9c0,1.1,0.8,1.9,1.9,1.9
	C1376.5,207.8,1377.4,207,1377.4,205.9z"/>
<path class="st5" d="M1396,371.2c0-1.1-0.8-1.9-1.9-1.9s-1.9,0.8-1.9,1.9s0.8,1.9,1.9,1.9S1396,372.2,1396,371.2z"/>
<path class="st5" d="M1394.1,341.7c0.5,0,1,0.2,1.4,0.5c0.4,0.4,0.5,0.8,0.5,1.4c0,0.5-0.2,1-0.5,1.4c-0.4,0.4-0.8,0.5-1.4,0.5
	s-1-0.2-1.4-0.5c-0.4-0.4-0.5-0.8-0.5-1.4s0.2-1,0.5-1.4C1393.1,341.9,1393.6,341.7,1394.1,341.7z"/>
<path class="st5" d="M1396,316.1c0-1.1-0.8-1.9-1.9-1.9s-1.9,0.8-1.9,1.9s0.8,1.9,1.9,1.9S1396,317.1,1396,316.1z"/>
<path class="st5" d="M1396,288.6c0-1.1-0.8-1.9-1.9-1.9s-1.9,0.8-1.9,1.9s0.8,1.9,1.9,1.9S1396,289.6,1396,288.6z"/>
<path class="st5" d="M1396,261c0-1.1-0.8-1.9-1.9-1.9s-1.9,0.8-1.9,1.9s0.8,1.9,1.9,1.9S1396,262,1396,261z"/>
<path class="st5" d="M1396,233.4c0-1.1-0.8-1.9-1.9-1.9s-1.9,0.8-1.9,1.9c0,1.1,0.8,1.9,1.9,1.9S1396,234.5,1396,233.4z"/>
<path class="st5" d="M1396,205.9c0-1.1-0.8-1.9-1.9-1.9s-1.9,0.8-1.9,1.9c0,1.1,0.8,1.9,1.9,1.9S1396,207,1396,205.9z"/>
</svg>
