<?xml version="1.0" encoding="utf-8"?>
<!-- Generator: Adobe Illustrator 25.2.1, SVG Export Plug-In . SVG Version: 6.00 Build 0)  -->
<svg version="1.1" id="Layer_1" xmlns="http://www.w3.org/2000/svg" xmlns:xlink="http://www.w3.org/1999/xlink" x="0px" y="0px"
	 viewBox="0 0 551.4 1746.8" style="enable-background:new 0 0 551.4 1746.8;" xml:space="preserve">
<style type="text/css">
	.st0{fill:#FFFFFF;}
	.st1{fill:#F26867;}
	.st2{fill:#EE3A39;}
	.st3{fill:none;stroke:#EE3A39;stroke-miterlimit:10;}
	.st4{fill:none;stroke:#EE3A39;stroke-width:1.5;stroke-miterlimit:10;}
	.st5{fill:#8F9294;}
</style>
<rect x="-66.2" y="-67.6" class="st0" width="739.2" height="1584"/>
<g>
	<g>
		<path class="st1" d="M45.3,1331.1c25.4,6.8,45,21.4,63.4,37.6c17.8,15.6,35.4,32,58.6,41.5c47.7,19.6,103.7,9.6,150.4-7.1
			c52.2-18.8,101.3-46.9,157.7-55.2c27.7-4,57.3-2.2,81.4,11.4c20,11.2,30.8,29,35.3,49c2.6,11.4,3.5,22.9,4.1,34.5h6.1
			c-0.2-3.3-0.4-6.5-0.7-9.8c-1.6-18.9-4.5-38.6-15.9-55.1c-12.9-18.8-35.1-30.9-59.2-35.3c-29.5-5.3-60.7,0-88.9,8.2
			c-27.1,7.9-52.8,19.1-78.5,29.9c-49,20.7-103.4,41.7-159.1,33c-13.1-2-25.7-5.9-37.3-11.5c-11.4-5.6-21.5-13-30.9-20.9
			c-18.5-15.4-35.2-33-57.4-44.6c-23.1-12.1-50.1-17.3-77-14.9h-0.1v5.4C13.4,1325.6,29.7,1327,45.3,1331.1z"/>
	</g>
</g>
<g>
	<g>
		<g>
			<path class="st2" d="M579.6,1784.9c2.6,11.4,14.3-348.6,14.9-337.1h6.1c-0.2-3.3-0.4-6.5-0.7-9.8c-1.6-18.9-4.5-38.6-15.9-55.1
				c-12.9-18.8-35.1-30.9-59.2-35.3c-29.5-5.3-60.7,0-88.9,8.2c-27.1,7.9-52.8,19.1-78.5,29.9c-49,20.7-103.4,41.7-159.1,33
				c-13.1-2-25.7-5.9-37.3-11.5c-11.4-5.6-21.5-13-30.9-20.9c-18.5-15.4-35.2-33-57.4-44.6c-23.1-12.1-50.1-17.3-77-14.9h-0.1v458.2
				C11.7,1783.4,575.1,1765,579.6,1784.9z"/>
		</g>
	</g>
</g>
<g>
	<path class="st3" d="M20.2,86.2c36,0,65.1-29.2,65.1-65.1c0.1-36-29.1-65.3-65.1-65.3C-15.8-44.2-45-14.9-45,21
		C-45,57-15.8,86.2,20.2,86.2z"/>
	<path class="st3" d="M20.2,76.3c30.5,0,55.4-24.7,55.4-55.4c0-30.5-24.7-55.3-55.3-55.3S-35.1-9.6-35.1,21
		C-35.1,51.6-10.3,76.3,20.2,76.3z"/>
</g>
<path class="st4" d="M72.3,202.2v14.4"/>
<path class="st4" d="M79.4,209.4H65"/>
<path class="st4" d="M72.3,231v14.3"/>
<path class="st4" d="M79.4,238.1H65"/>
<path class="st4" d="M42.6,202.2v14.4"/>
<path class="st4" d="M49.8,209.4H35.4"/>
<path class="st4" d="M42.6,231v14.3"/>
<path class="st4" d="M49.8,238.1H35.4"/>
<path class="st4" d="M42.6,260.5v14.4"/>
<path class="st4" d="M49.8,267.7H35.4"/>
<path class="st4" d="M42.6,289.3v14.4"/>
<path class="st4" d="M49.8,296.5H35.4"/>
<path class="st4" d="M13,260.5v14.4"/>
<path class="st4" d="M20.2,267.7H5.8"/>
<path class="st4" d="M13,289.3v14.4"/>
<path class="st4" d="M20.2,296.5H5.8"/>
<path class="st5" d="M468.6,426.2c0-1.1-0.8-1.9-1.9-1.9s-1.9,0.8-1.9,1.9s0.8,1.9,1.9,1.9S468.6,427.2,468.6,426.2z"/>
<path class="st5" d="M466.7,396.7c0.4,0,0.8,0.1,1.1,0.3c0.3,0.2,0.5,0.5,0.7,0.8c0.2,0.4,0.2,0.8,0.1,1.1c-0.1,0.4-0.2,0.7-0.5,1
	c-0.2,0.2-0.6,0.5-1,0.5s-0.8,0-1.1-0.1c-0.4-0.2-0.6-0.4-0.8-0.7s-0.3-0.7-0.3-1.1c0-0.5,0.2-1,0.5-1.4
	C465.7,396.9,466.2,396.7,466.7,396.7z"/>
<path class="st5" d="M468.6,371.1c0-1.1-0.8-1.9-1.9-1.9s-1.9,0.8-1.9,1.9s0.8,1.9,1.9,1.9S468.6,372.1,468.6,371.1z"/>
<path class="st5" d="M468.6,343.6c0-1.1-0.8-1.9-1.9-1.9s-1.9,0.8-1.9,1.9s0.8,1.9,1.9,1.9S468.6,344.6,468.6,343.6z"/>
<path class="st5" d="M468.6,316c0-1.1-0.8-1.9-1.9-1.9s-1.9,0.8-1.9,1.9s0.8,1.9,1.9,1.9S468.6,317,468.6,316z"/>
<path class="st5" d="M468.6,288.4c0-1.1-0.8-1.9-1.9-1.9s-1.9,0.8-1.9,1.9s0.8,1.9,1.9,1.9S468.6,289.5,468.6,288.4z"/>
<path class="st5" d="M468.6,260.9c0-1.1-0.8-1.9-1.9-1.9s-1.9,0.8-1.9,1.9s0.8,1.9,1.9,1.9S468.6,262,468.6,260.9z"/>
<path class="st5" d="M487.2,426.2c0-1.1-0.8-1.9-1.9-1.9s-1.9,0.8-1.9,1.9s0.8,1.9,1.9,1.9S487.2,427.2,487.2,426.2z"/>
<path class="st5" d="M485.3,396.7c0.4,0,0.8,0.1,1.1,0.3c0.3,0.2,0.5,0.5,0.7,0.8c0.2,0.4,0.2,0.8,0.1,1.1c-0.1,0.4-0.2,0.7-0.5,1
	c-0.2,0.2-0.6,0.5-1,0.5c-0.4,0.1-0.8,0-1.1-0.1c-0.4-0.2-0.6-0.4-0.8-0.7c-0.2-0.3-0.3-0.7-0.3-1.1c0-0.5,0.2-1,0.5-1.4
	C484.3,396.9,484.9,396.7,485.3,396.7z"/>
<path class="st5" d="M487.2,371.1c0-1.1-0.8-1.9-1.9-1.9s-1.9,0.8-1.9,1.9s0.8,1.9,1.9,1.9S487.2,372.1,487.2,371.1z"/>
<path class="st5" d="M487.2,343.6c0-1.1-0.8-1.9-1.9-1.9s-1.9,0.8-1.9,1.9s0.8,1.9,1.9,1.9S487.2,344.6,487.2,343.6z"/>
<path class="st5" d="M487.2,316c0-1.1-0.8-1.9-1.9-1.9s-1.9,0.8-1.9,1.9s0.8,1.9,1.9,1.9C486.4,317.9,487.2,317,487.2,316z"/>
<path class="st5" d="M487.2,288.4c0-1.1-0.8-1.9-1.9-1.9s-1.9,0.8-1.9,1.9s0.8,1.9,1.9,1.9S487.2,289.5,487.2,288.4z"/>
<path class="st5" d="M487.2,260.9c0-1.1-0.8-1.9-1.9-1.9s-1.9,0.8-1.9,1.9s0.8,1.9,1.9,1.9S487.2,262,487.2,260.9z"/>
<path class="st5" d="M505.8,426.2c0-1.1-0.8-1.9-1.9-1.9s-1.9,0.8-1.9,1.9s0.8,1.9,1.9,1.9C505,428.1,505.8,427.2,505.8,426.2z"/>
<path class="st5" d="M504,396.7c0.5,0,1,0.2,1.4,0.5c0.4,0.4,0.5,0.8,0.5,1.4c0,0.5-0.2,1-0.5,1.4c-0.4,0.4-0.8,0.5-1.4,0.5
	c-0.5,0-1-0.2-1.4-0.5c-0.4-0.4-0.5-0.8-0.5-1.4s0.2-1,0.5-1.4C503,396.9,503.5,396.7,504,396.7z"/>
<path class="st5" d="M505.8,371.1c0-1.1-0.8-1.9-1.9-1.9s-1.9,0.8-1.9,1.9s0.8,1.9,1.9,1.9C505,373,505.8,372.1,505.8,371.1z"/>
<path class="st5" d="M505.8,343.6c0-1.1-0.8-1.9-1.9-1.9s-1.9,0.8-1.9,1.9s0.8,1.9,1.9,1.9C505,345.5,505.8,344.6,505.8,343.6z"/>
<path class="st5" d="M505.8,316c0-1.1-0.8-1.9-1.9-1.9s-1.9,0.8-1.9,1.9s0.8,1.9,1.9,1.9C505,317.9,505.8,317,505.8,316z"/>
<path class="st5" d="M505.8,288.4c0-1.1-0.8-1.9-1.9-1.9s-1.9,0.8-1.9,1.9s0.8,1.9,1.9,1.9C505,290.3,505.8,289.5,505.8,288.4z"/>
<path class="st5" d="M505.8,260.9c0-1.1-0.8-1.9-1.9-1.9s-1.9,0.8-1.9,1.9s0.8,1.9,1.9,1.9C505,262.8,505.8,262,505.8,260.9z"/>
<path class="st5" d="M524.5,426.2c0-1.1-0.8-1.9-1.9-1.9s-1.9,0.8-1.9,1.9s0.8,1.9,1.9,1.9C523.6,428.1,524.5,427.2,524.5,426.2z"/>
<path class="st5" d="M522.6,396.7c0.5,0,1,0.2,1.4,0.5c0.4,0.4,0.5,0.8,0.5,1.4c0,0.5-0.2,1-0.5,1.4c-0.4,0.4-0.8,0.5-1.4,0.5
	c-0.5,0-1-0.2-1.4-0.5c-0.4-0.4-0.5-0.8-0.5-1.4s0.2-1,0.5-1.4C521.6,396.9,522.1,396.7,522.6,396.7z"/>
<path class="st5" d="M524.5,371.1c0-1.1-0.8-1.9-1.9-1.9s-1.9,0.8-1.9,1.9s0.8,1.9,1.9,1.9C523.6,373,524.5,372.1,524.5,371.1z"/>
<path class="st5" d="M524.5,343.6c0-1.1-0.8-1.9-1.9-1.9s-1.9,0.8-1.9,1.9s0.8,1.9,1.9,1.9C523.6,345.5,524.5,344.6,524.5,343.6z"/>
<path class="st5" d="M524.5,316c0-1.1-0.8-1.9-1.9-1.9s-1.9,0.8-1.9,1.9s0.8,1.9,1.9,1.9C523.6,317.9,524.5,317,524.5,316z"/>
<path class="st5" d="M524.5,288.4c0-1.1-0.8-1.9-1.9-1.9s-1.9,0.8-1.9,1.9s0.8,1.9,1.9,1.9C523.6,290.3,524.5,289.5,524.5,288.4z"/>
<path class="st5" d="M524.5,260.9c0-1.1-0.8-1.9-1.9-1.9s-1.9,0.8-1.9,1.9s0.8,1.9,1.9,1.9C523.6,262.8,524.5,262,524.5,260.9z"/>
<path class="st5" d="M543.1,426.2c0-1.1-0.8-1.9-1.9-1.9s-1.9,0.8-1.9,1.9s0.8,1.9,1.9,1.9S543.1,427.2,543.1,426.2z"/>
<path class="st5" d="M541.2,396.7c0.5,0,1,0.2,1.4,0.5c0.4,0.4,0.5,0.8,0.5,1.4c0,0.5-0.2,1-0.5,1.4c-0.4,0.4-0.8,0.5-1.4,0.5
	s-1-0.2-1.4-0.5c-0.4-0.4-0.5-0.8-0.5-1.4s0.2-1,0.5-1.4C540.2,396.9,540.7,396.7,541.2,396.7z"/>
<path class="st5" d="M543.1,371.1c0-1.1-0.8-1.9-1.9-1.9s-1.9,0.8-1.9,1.9s0.8,1.9,1.9,1.9S543.1,372.1,543.1,371.1z"/>
<path class="st5" d="M543.1,343.6c0-1.1-0.8-1.9-1.9-1.9s-1.9,0.8-1.9,1.9s0.8,1.9,1.9,1.9S543.1,344.6,543.1,343.6z"/>
<path class="st5" d="M543.1,316c0-1.1-0.8-1.9-1.9-1.9s-1.9,0.8-1.9,1.9s0.8,1.9,1.9,1.9S543.1,317,543.1,316z"/>
<path class="st5" d="M543.1,288.4c0-1.1-0.8-1.9-1.9-1.9s-1.9,0.8-1.9,1.9s0.8,1.9,1.9,1.9S543.1,289.5,543.1,288.4z"/>
<path class="st5" d="M543.1,260.9c0-1.1-0.8-1.9-1.9-1.9s-1.9,0.8-1.9,1.9s0.8,1.9,1.9,1.9S543.1,262,543.1,260.9z"/>
</svg>
