<?xml version="1.0" encoding="utf-8"?>
<!-- Generator: Adobe Illustrator 25.2.1, SVG Export Plug-In . SVG Version: 6.00 Build 0)  -->
<svg version="1.1" id="Layer_1" xmlns="http://www.w3.org/2000/svg" xmlns:xlink="http://www.w3.org/1999/xlink" x="0px" y="0px"
	 viewBox="0 0 1440 609" style="enable-background:new 0 0 1440 609;" xml:space="preserve">
<style type="text/css">
	.st0{fill:#EC3E3D;}
</style>
<path class="st0" d="M189.9,207.2c0.4,0.4,0.8,0.9,1.1,1.4s0.4,1.1,0.4,1.7c0,0.6-0.1,1.2-0.3,1.8c-0.2,0.6-0.5,1.1-0.9,1.5
	c-0.8,0.9-2,1.4-3.2,1.5c-1.2,0-2.4-0.4-3.3-1.2c-0.4-0.4-0.8-0.9-1.1-1.4c-0.3-0.5-0.4-1.1-0.4-1.7c0-0.6,0.1-1.2,0.3-1.8
	c0.2-0.6,0.5-1.1,0.9-1.5c0.4-0.4,0.9-0.8,1.5-1.1c0.5-0.3,1.1-0.4,1.7-0.4c0.6,0,1.2,0.1,1.8,0.3S189.5,206.8,189.9,207.2
	L189.9,207.2z"/>
<path class="st0" d="M244.4,148.2c0.7,0.6,1.1,1.4,1.4,2.3c0.2,0.9,0.2,1.8-0.1,2.7c-0.3,0.9-0.9,1.6-1.6,2.1
	c-0.7,0.5-1.6,0.9-2.5,0.9s-1.8-0.2-2.6-0.6c-0.8-0.5-1.4-1.2-1.8-2c-0.4-0.8-0.5-1.7-0.4-2.6s0.5-1.7,1.1-2.4
	c0.8-0.9,2-1.4,3.2-1.5C242.3,147,243.5,147.4,244.4,148.2L244.4,148.2z"/>
<path class="st0" d="M262.5,128.6c0.7,0.6,1.1,1.4,1.4,2.3c0.2,0.9,0.2,1.8-0.1,2.7c-0.3,0.9-0.9,1.6-1.6,2.1s-1.6,0.8-2.5,0.9
	c-0.9,0-1.8-0.2-2.6-0.7c-0.8-0.5-1.4-1.2-1.8-2c-0.4-0.8-0.5-1.7-0.4-2.6s0.5-1.7,1.2-2.4c0.8-0.9,2-1.4,3.2-1.5
	C260.4,127.3,261.6,127.7,262.5,128.6L262.5,128.6z"/>
<path class="st0" d="M190.2,171.1c0.9,0.8,1.4,2,1.5,3.2c0,1.2-0.4,2.4-1.2,3.3c-0.4,0.4-0.9,0.8-1.4,1.1s-1.1,0.4-1.7,0.4
	c-0.6,0-1.2-0.1-1.8-0.3s-1.1-0.5-1.5-0.9c-0.9-0.8-1.4-2-1.5-3.2c0-1.2,0.4-2.4,1.2-3.3c0.8-0.9,2-1.4,3.2-1.5
	C188.2,169.8,189.3,170.2,190.2,171.1L190.2,171.1z"/>
<path class="st0" d="M208.4,151.3c0.5,0.4,0.8,0.9,1.1,1.4s0.4,1.1,0.4,1.8c0,0.6-0.1,1.2-0.3,1.8c-0.2,0.6-0.5,1.1-0.9,1.5
	c-0.8,0.9-2,1.4-3.2,1.5c-1.2,0.1-2.4-0.4-3.3-1.2c-0.9-0.8-1.4-2-1.5-3.2c-0.1-1.2,0.4-2.4,1.2-3.3c0.8-0.9,2-1.4,3.2-1.5
	C206.3,150.1,207.5,150.5,208.4,151.3L208.4,151.3z"/>
<path class="st0" d="M154.2,174.2c0.9,0.8,1.4,2,1.5,3.2c0,1.2-0.4,2.4-1.2,3.3c-0.4,0.4-0.9,0.8-1.4,1c-0.5,0.3-1.1,0.4-1.7,0.4
	c-0.6,0-1.2-0.1-1.8-0.3c-0.6-0.2-1.1-0.5-1.5-0.9c-0.4-0.4-0.8-0.9-1.1-1.4s-0.4-1.1-0.4-1.7s0.1-1.2,0.3-1.8
	c0.2-0.6,0.5-1.1,0.9-1.5c0.8-0.9,2-1.4,3.2-1.5C152.1,173,153.3,173.4,154.2,174.2L154.2,174.2z"/>
<path class="st0" d="M172.4,154.6c0.4,0.4,0.8,0.9,1,1.4c0.3,0.5,0.4,1.1,0.4,1.7s-0.1,1.2-0.3,1.8s-0.5,1.1-0.9,1.5
	c-0.4,0.4-0.9,0.8-1.4,1.1c-0.5,0.3-1.1,0.4-1.7,0.4c-0.6,0-1.2-0.1-1.8-0.3s-1.1-0.5-1.5-0.9c-0.4-0.4-0.8-0.9-1-1.4
	c-0.3-0.5-0.4-1.1-0.4-1.7s0.1-1.2,0.3-1.8s0.5-1.1,0.9-1.5c0.8-0.9,2-1.4,3.2-1.5C170.3,153.3,171.5,153.8,172.4,154.6L172.4,154.6
	z"/>
<path class="st0" d="M190.5,134.9c0.4,0.4,0.8,0.9,1.1,1.4c0.3,0.5,0.4,1.1,0.4,1.7s-0.1,1.2-0.3,1.8c-0.2,0.6-0.5,1.1-0.9,1.5
	c-0.4,0.4-0.9,0.8-1.4,1.1c-0.5,0.3-1.1,0.4-1.7,0.4c-0.6,0-1.2-0.1-1.8-0.3c-0.6-0.2-1.1-0.5-1.5-0.9c-0.9-0.8-1.4-2-1.5-3.2
	c-0.1-1.2,0.4-2.4,1.2-3.3c0.8-0.9,2-1.4,3.2-1.5C188.4,133.7,189.6,134.1,190.5,134.9z"/>
<path class="st0" d="M208.7,115.3c0.4,0.4,0.8,0.9,1,1.4c0.3,0.5,0.4,1.1,0.4,1.7s-0.1,1.2-0.3,1.8c-0.2,0.6-0.5,1.1-0.9,1.5
	c-0.4,0.4-0.9,0.8-1.4,1.1c-0.5,0.3-1.1,0.4-1.7,0.4c-0.6,0-1.2-0.1-1.8-0.3c-0.6-0.2-1.1-0.5-1.5-0.9c-0.8-0.8-1.3-2-1.3-3.1
	c0-1.2,0.4-2.3,1.2-3.2c0.8-0.9,1.9-1.4,3.1-1.5C206.6,114.1,207.8,114.5,208.7,115.3L208.7,115.3z"/>
<path class="st0" d="M226.9,95.6c0.7,0.6,1.1,1.4,1.4,2.3c0.2,0.9,0.2,1.8-0.2,2.7c-0.3,0.9-0.9,1.6-1.6,2.1
	c-0.7,0.5-1.6,0.8-2.5,0.9c-0.9,0-1.8-0.2-2.6-0.7s-1.4-1.2-1.8-2c-0.4-0.8-0.5-1.7-0.4-2.6c0.1-0.9,0.6-1.7,1.2-2.4
	c0.4-0.4,0.9-0.8,1.4-1c0.5-0.3,1.1-0.4,1.7-0.4c0.6,0,1.2,0.1,1.8,0.3C225.9,94.9,226.4,95.2,226.9,95.6L226.9,95.6z"/>
<path class="st0" d="M136.4,157.8c0.9,0.8,1.4,2,1.5,3.2c0,1.2-0.4,2.4-1.2,3.3c-0.4,0.4-0.9,0.8-1.4,1.1c-0.5,0.3-1.1,0.4-1.7,0.4
	c-0.6,0-1.2-0.1-1.8-0.3c-0.6-0.2-1.1-0.5-1.5-0.9c-0.4-0.4-0.8-0.9-1.1-1.4s-0.4-1.1-0.4-1.7s0.1-1.2,0.3-1.8
	c0.2-0.6,0.5-1.1,0.9-1.5c0.4-0.4,0.9-0.8,1.4-1.1c0.5-0.3,1.1-0.4,1.7-0.4c0.6,0,1.2,0.1,1.8,0.3
	C135.4,157,135.9,157.4,136.4,157.8z"/>
<path class="st0" d="M172.7,118.4c0.9,0.8,1.4,2,1.5,3.2c0,1.2-0.4,2.4-1.2,3.3c-0.4,0.4-0.9,0.8-1.4,1c-0.5,0.3-1.1,0.4-1.7,0.4
	c-0.6,0-1.2-0.1-1.8-0.3c-0.6-0.2-1.1-0.5-1.5-0.9c-0.4-0.4-0.8-0.9-1.1-1.4s-0.4-1.1-0.4-1.7s0.1-1.2,0.3-1.8
	c0.2-0.6,0.5-1.1,0.9-1.5c0.8-0.9,2-1.4,3.2-1.5C170.6,117.2,171.8,117.6,172.7,118.4L172.7,118.4z"/>
<path class="st0" d="M190.8,98.8c0.4,0.4,0.8,0.9,1,1.4c0.3,0.5,0.4,1.1,0.4,1.7s-0.1,1.2-0.3,1.8c-0.2,0.6-0.5,1.1-0.9,1.5
	c-0.4,0.4-0.9,0.8-1.4,1c-0.5,0.3-1.1,0.4-1.7,0.4c-0.6,0-1.2-0.1-1.8-0.3s-1.1-0.5-1.5-0.9c-0.9-0.8-1.4-2-1.5-3.2
	c0-1.2,0.4-2.4,1.2-3.3c0.4-0.4,0.9-0.8,1.4-1c0.5-0.3,1.1-0.4,1.7-0.4c0.6,0,1.2,0.1,1.8,0.3C189.9,98.1,190.4,98.4,190.8,98.8
	L190.8,98.8z"/>
<path class="st0" d="M1224.1,475.9h71.9v71.9l-26.6,26H1198v-71.4L1224.1,475.9z M1199.8,503.2v67.7l24.3-24.3v-68.2L1199.8,503.2z
	 M1294.2,477.6h-68.4V546h68.4V477.6z M1293.5,547.8h-68.2l-24.3,24.3h67.7L1293.5,547.8z"/>
</svg>
