<svg width="1440" height="987" viewBox="0 0 1440 987" fill="none" xmlns="http://www.w3.org/2000/svg">
<path d="M1440 0H0V987H1440V0Z" fill="#4032A8"/>
<mask id="mask0_303_735" style="mask-type:alpha" maskUnits="userSpaceOnUse" x="0" y="0" width="1440" height="987">
<path d="M1440 0H0V987H1440V0Z" fill="url(#paint0_radial_303_735)"/>
</mask>
<g mask="url(#mask0_303_735)">
<g opacity="0.4">
<g style="mix-blend-mode:soft-light">
<path d="M491.941 -385C491.941 -385 607.448 -121.205 441.121 210.316C274.795 541.836 511.747 786.838 830.206 788.795" stroke="white" stroke-miterlimit="10"/>
</g>
<g style="mix-blend-mode:soft-light">
<path d="M569.037 -304.935C569.037 -304.935 687.325 -130.164 582.287 73.7499C477.25 277.663 320.98 504.575 750.004 709.399" stroke="white" stroke-miterlimit="10"/>
</g>
<g style="mix-blend-mode:soft-light">
<path d="M626.842 1018.56C622.431 1014.14 185.547 868.637 307.267 559.548C428.987 250.46 336.204 111.062 75 -58.2681" stroke="white" stroke-miterlimit="10"/>
</g>
</g>
<g opacity="0.4">
<g style="mix-blend-mode:soft-light">
<path d="M1629.77 -230C1629.77 -230 1638.54 57.8578 1360.55 303.443C1082.56 549.029 1211.02 864.673 1505.76 985.312" stroke="white" stroke-miterlimit="10"/>
</g>
<g style="mix-blend-mode:soft-light">
<path d="M1697.42 -85.2301C1697.42 -85.2301 1742.05 121.052 1568.44 271.074C1394.84 421.096 1165.32 573.28 1486.97 923.268" stroke="white" stroke-miterlimit="10"/>
</g>
<g style="mix-blend-mode:soft-light">
<path d="M1350.56 969.522C1348.11 963.79 921.965 692.683 1150.2 451.32C1378.43 209.956 1344.28 45.9812 1165.17 -208.546" stroke="white" stroke-miterlimit="10"/>
</g>
</g>
<path d="M1440 1122H0V914.735C478.954 831.088 961.046 831.088 1440 914.735V1122Z" fill="white"/>
<g opacity="0.2">
<path d="M223.063 519.562C223.063 519.074 223.208 518.597 223.479 518.191C223.751 517.785 224.136 517.469 224.587 517.282C225.038 517.095 225.534 517.046 226.013 517.141C226.492 517.237 226.932 517.472 227.277 517.817C227.622 518.162 227.857 518.602 227.953 519.081C228.048 519.559 227.999 520.056 227.812 520.507C227.625 520.958 227.309 521.343 226.903 521.614C226.497 521.886 226.02 522.03 225.532 522.03C224.877 522.03 224.249 521.77 223.787 521.307C223.324 520.844 223.063 520.217 223.063 519.562Z" fill="white"/>
<path d="M192.548 519.562C192.548 519.074 192.693 518.597 192.964 518.191C193.235 517.785 193.62 517.468 194.071 517.282C194.522 517.095 195.019 517.046 195.498 517.141C195.977 517.236 196.416 517.471 196.761 517.817C197.106 518.162 197.342 518.602 197.437 519.08C197.532 519.559 197.483 520.055 197.296 520.506C197.11 520.957 196.793 521.343 196.387 521.614C195.981 521.885 195.504 522.03 195.016 522.03C194.361 522.03 193.734 521.77 193.271 521.307C192.808 520.844 192.548 520.217 192.548 519.562Z" fill="white"/>
<path d="M162.032 519.562C162.032 518.907 162.292 518.28 162.755 517.817C163.218 517.354 163.846 517.094 164.5 517.094C165.155 517.094 165.783 517.354 166.246 517.817C166.709 518.28 166.969 518.907 166.969 519.562C166.969 520.217 166.709 520.844 166.246 521.307C165.783 521.77 165.155 522.03 164.5 522.03C163.846 522.03 163.218 521.77 162.755 521.307C162.292 520.844 162.032 520.217 162.032 519.562Z" fill="white"/>
<path d="M131.516 519.562C131.51 519.065 131.652 518.577 131.924 518.161C132.196 517.745 132.587 517.42 133.045 517.226C133.503 517.033 134.008 516.981 134.496 517.076C134.984 517.172 135.433 517.411 135.784 517.762C136.136 518.114 136.375 518.562 136.47 519.05C136.566 519.538 136.513 520.043 136.32 520.502C136.127 520.96 135.802 521.35 135.386 521.622C134.969 521.894 134.481 522.037 133.984 522.03C133.332 522.022 132.71 521.759 132.249 521.298C131.787 520.837 131.525 520.214 131.516 519.562Z" fill="white"/>
<path d="M103.501 517.094C102.137 517.094 101.032 518.199 101.032 519.562C101.032 520.925 102.137 522.03 103.501 522.03C104.864 522.03 105.969 520.925 105.969 519.562C105.969 518.199 104.864 517.094 103.501 517.094Z" fill="white"/>
<path d="M223.063 492.797C223.063 492.308 223.208 491.831 223.479 491.425C223.751 491.019 224.136 490.703 224.587 490.516C225.038 490.329 225.534 490.28 226.013 490.376C226.492 490.471 226.932 490.706 227.277 491.051C227.622 491.396 227.857 491.836 227.953 492.315C228.048 492.794 227.999 493.29 227.812 493.741C227.625 494.192 227.309 494.578 226.903 494.849C226.497 495.12 226.02 495.265 225.532 495.265C225.206 495.269 224.883 495.208 224.582 495.086C224.281 494.963 224.007 494.781 223.777 494.551C223.547 494.321 223.365 494.047 223.243 493.746C223.12 493.445 223.059 493.122 223.063 492.797Z" fill="white"/>
<path d="M192.548 492.797C192.548 492.308 192.693 491.831 192.964 491.425C193.235 491.019 193.62 490.703 194.071 490.516C194.522 490.329 195.019 490.28 195.498 490.376C195.977 490.471 196.416 490.706 196.761 491.051C197.106 491.396 197.342 491.836 197.437 492.315C197.532 492.794 197.483 493.29 197.296 493.741C197.11 494.192 196.793 494.578 196.387 494.849C195.981 495.12 195.504 495.265 195.016 495.265C194.691 495.269 194.368 495.208 194.066 495.086C193.765 494.963 193.491 494.781 193.261 494.551C193.031 494.321 192.85 494.047 192.727 493.746C192.604 493.445 192.543 493.122 192.548 492.797Z" fill="white"/>
<path d="M162.032 492.797C162.032 492.308 162.177 491.831 162.448 491.425C162.719 491.019 163.105 490.703 163.556 490.516C164.007 490.329 164.503 490.28 164.982 490.376C165.461 490.471 165.901 490.706 166.246 491.051C166.591 491.396 166.826 491.836 166.921 492.315C167.017 492.794 166.968 493.29 166.781 493.741C166.594 494.192 166.278 494.578 165.872 494.849C165.466 495.12 164.989 495.265 164.5 495.265C163.846 495.265 163.218 495.005 162.755 494.542C162.292 494.079 162.032 493.451 162.032 492.797Z" fill="white"/>
<path d="M131.516 492.797C131.51 492.299 131.652 491.812 131.924 491.396C132.196 490.979 132.587 490.654 133.045 490.461C133.503 490.268 134.008 490.216 134.496 490.311C134.984 490.406 135.433 490.645 135.784 490.997C136.136 491.348 136.375 491.797 136.47 492.285C136.566 492.773 136.513 493.278 136.32 493.736C136.127 494.194 135.802 494.584 135.386 494.857C134.969 495.129 134.481 495.271 133.984 495.265C133.33 495.265 132.702 495.005 132.239 494.542C131.776 494.079 131.516 493.451 131.516 492.797Z" fill="white"/>
<path d="M103.501 490.328C102.137 490.328 101.032 491.433 101.032 492.796C101.032 494.16 102.137 495.265 103.501 495.265C104.864 495.265 105.969 494.16 105.969 492.796C105.969 491.433 104.864 490.328 103.501 490.328Z" fill="white"/>
<path d="M223.063 466.031C223.063 465.543 223.208 465.066 223.479 464.66C223.751 464.254 224.136 463.937 224.587 463.751C225.038 463.564 225.534 463.515 226.013 463.61C226.492 463.706 226.932 463.941 227.277 464.286C227.622 464.631 227.857 465.071 227.953 465.549C228.048 466.028 227.999 466.525 227.812 466.976C227.625 467.427 227.309 467.812 226.903 468.083C226.497 468.354 226.02 468.499 225.532 468.499C225.206 468.504 224.883 468.443 224.582 468.32C224.281 468.198 224.007 468.016 223.777 467.786C223.547 467.556 223.365 467.282 223.243 466.981C223.12 466.679 223.059 466.356 223.063 466.031Z" fill="white"/>
<path d="M192.548 466.031C192.548 465.543 192.693 465.066 192.964 464.66C193.235 464.254 193.62 463.937 194.071 463.751C194.522 463.564 195.019 463.515 195.498 463.61C195.977 463.706 196.416 463.941 196.761 464.286C197.106 464.631 197.342 465.071 197.437 465.549C197.532 466.028 197.483 466.525 197.296 466.976C197.11 467.427 196.793 467.812 196.387 468.083C195.981 468.354 195.504 468.499 195.016 468.499C194.691 468.504 194.368 468.443 194.066 468.32C193.765 468.198 193.491 468.016 193.261 467.786C193.031 467.556 192.85 467.282 192.727 466.981C192.604 466.679 192.543 466.356 192.548 466.031Z" fill="white"/>
<path d="M162.032 466.031C162.032 465.543 162.177 465.066 162.448 464.66C162.719 464.254 163.105 463.937 163.556 463.751C164.007 463.564 164.503 463.515 164.982 463.61C165.461 463.706 165.901 463.941 166.246 464.286C166.591 464.631 166.826 465.071 166.921 465.55C167.017 466.028 166.968 466.525 166.781 466.976C166.594 467.427 166.278 467.812 165.872 468.083C165.466 468.354 164.989 468.499 164.5 468.499C163.846 468.499 163.218 468.239 162.755 467.776C162.292 467.313 162.032 466.686 162.032 466.031Z" fill="white"/>
<path d="M131.516 466.031C131.51 465.534 131.652 465.046 131.924 464.63C132.196 464.214 132.587 463.889 133.045 463.695C133.503 463.502 134.008 463.45 134.496 463.545C134.984 463.641 135.433 463.88 135.784 464.231C136.136 464.583 136.375 465.031 136.47 465.519C136.566 466.007 136.513 466.513 136.32 466.971C136.127 467.429 135.802 467.819 135.386 468.091C134.969 468.364 134.481 468.506 133.984 468.499C133.33 468.499 132.702 468.239 132.239 467.776C131.776 467.313 131.516 466.686 131.516 466.031Z" fill="white"/>
<path d="M101 466.031C100.993 465.535 101.134 465.049 101.405 464.633C101.676 464.218 102.064 463.892 102.521 463.698C102.977 463.504 103.481 463.45 103.968 463.543C104.455 463.636 104.903 463.871 105.256 464.22C105.609 464.568 105.851 465.013 105.95 465.499C106.049 465.985 106.001 466.489 105.813 466.948C105.624 467.407 105.304 467.799 104.892 468.075C104.481 468.352 103.996 468.499 103.5 468.499C103.173 468.503 102.849 468.443 102.545 468.321C102.242 468.198 101.966 468.017 101.734 467.788C101.501 467.558 101.317 467.285 101.191 466.983C101.065 466.681 101 466.358 101 466.031Z" fill="white"/>
<path d="M223.063 439.266C223.063 438.611 223.324 437.983 223.787 437.52C224.249 437.057 224.877 436.797 225.532 436.797C226.186 436.797 226.814 437.057 227.277 437.52C227.74 437.983 228 438.611 228 439.266C228 439.92 227.74 440.548 227.277 441.011C226.814 441.474 226.186 441.734 225.532 441.734C224.877 441.734 224.249 441.474 223.787 441.011C223.324 440.548 223.063 439.92 223.063 439.266Z" fill="white"/>
<path d="M192.547 439.266C192.554 438.779 192.704 438.305 192.979 437.903C193.254 437.501 193.641 437.19 194.093 437.008C194.544 436.826 195.04 436.782 195.516 436.881C195.993 436.98 196.43 437.217 196.772 437.564C197.114 437.91 197.346 438.35 197.438 438.828C197.531 439.306 197.48 439.8 197.292 440.249C197.105 440.699 196.789 441.082 196.383 441.352C195.978 441.622 195.502 441.766 195.015 441.766C194.689 441.766 194.365 441.701 194.063 441.575C193.762 441.449 193.489 441.264 193.259 441.032C193.029 440.799 192.848 440.523 192.726 440.22C192.604 439.917 192.543 439.592 192.547 439.266Z" fill="white"/>
<path d="M162.031 439.266C162.038 438.779 162.188 438.305 162.463 437.903C162.738 437.501 163.126 437.19 163.577 437.008C164.029 436.826 164.524 436.782 165.001 436.881C165.477 436.98 165.914 437.217 166.256 437.564C166.598 437.91 166.83 438.35 166.923 438.828C167.015 439.306 166.965 439.8 166.777 440.249C166.589 440.699 166.273 441.082 165.868 441.352C165.463 441.622 164.987 441.766 164.5 441.766C163.842 441.757 163.215 441.49 162.753 441.022C162.291 440.554 162.031 439.923 162.031 439.266Z" fill="white"/>
<path d="M131.516 439.266C131.516 438.77 131.663 438.285 131.94 437.873C132.216 437.461 132.608 437.141 133.067 436.953C133.526 436.764 134.03 436.717 134.516 436.816C135.002 436.915 135.447 437.156 135.796 437.509C136.144 437.862 136.38 438.311 136.472 438.798C136.565 439.285 136.511 439.789 136.317 440.245C136.123 440.701 135.797 441.089 135.382 441.36C134.966 441.631 134.48 441.772 133.984 441.766C133.327 441.757 132.699 441.49 132.237 441.022C131.775 440.554 131.516 439.923 131.516 439.266Z" fill="white"/>
<path d="M101 439.266C101 438.771 101.146 438.288 101.421 437.877C101.696 437.465 102.086 437.145 102.543 436.956C103 436.766 103.503 436.717 103.988 436.813C104.473 436.91 104.918 437.148 105.268 437.498C105.618 437.847 105.855 438.293 105.952 438.778C106.048 439.263 105.999 439.765 105.81 440.222C105.621 440.679 105.3 441.07 104.889 441.344C104.478 441.619 103.994 441.766 103.5 441.766C102.837 441.766 102.201 441.502 101.732 441.033C101.263 440.565 101 439.929 101 439.266Z" fill="white"/>
<path d="M223.063 412.532C223.063 412.044 223.208 411.567 223.479 411.161C223.751 410.755 224.136 410.439 224.587 410.252C225.038 410.065 225.534 410.016 226.013 410.111C226.492 410.207 226.932 410.442 227.277 410.787C227.622 411.132 227.857 411.572 227.953 412.051C228.048 412.529 227.999 413.026 227.812 413.477C227.625 413.928 227.309 414.313 226.903 414.584C226.497 414.856 226.02 415 225.532 415C224.877 415 224.249 414.74 223.787 414.277C223.324 413.815 223.063 413.187 223.063 412.532Z" fill="white"/>
<path d="M192.548 412.532C192.548 412.044 192.693 411.567 192.964 411.161C193.235 410.755 193.62 410.439 194.071 410.252C194.522 410.065 195.019 410.016 195.498 410.111C195.977 410.207 196.416 410.442 196.761 410.787C197.106 411.132 197.342 411.572 197.437 412.051C197.532 412.529 197.483 413.026 197.296 413.477C197.11 413.928 196.793 414.313 196.387 414.584C195.981 414.856 195.504 415 195.016 415C194.361 415 193.734 414.74 193.271 414.277C192.808 413.815 192.548 413.187 192.548 412.532Z" fill="white"/>
<path d="M162.032 412.532C162.032 411.878 162.292 411.25 162.755 410.787C163.218 410.324 163.846 410.064 164.5 410.064C165.155 410.064 165.783 410.324 166.246 410.787C166.709 411.25 166.969 411.878 166.969 412.532C166.969 413.187 166.709 413.815 166.246 414.277C165.783 414.74 165.155 415 164.5 415C163.846 415 163.218 414.74 162.755 414.277C162.292 413.815 162.032 413.187 162.032 412.532Z" fill="white"/>
<path d="M131.516 412.532C131.51 412.035 131.652 411.547 131.924 411.131C132.196 410.715 132.587 410.39 133.045 410.196C133.503 410.003 134.008 409.951 134.496 410.047C134.984 410.142 135.433 410.381 135.784 410.732C136.136 411.084 136.375 411.532 136.47 412.02C136.566 412.508 136.513 413.014 136.32 413.472C136.127 413.93 135.802 414.32 135.386 414.592C134.969 414.865 134.481 415.007 133.984 415C133.332 414.992 132.71 414.729 132.249 414.268C131.787 413.807 131.525 413.184 131.516 412.532Z" fill="white"/>
<path d="M103.501 410.064C102.137 410.064 101.032 411.169 101.032 412.532C101.032 413.895 102.137 415 103.501 415C104.864 415 105.969 413.895 105.969 412.532C105.969 411.169 104.864 410.064 103.501 410.064Z" fill="white"/>
</g>
<g opacity="0.2">
<path d="M1276.14 183.144C1276.47 182.782 1276.9 182.525 1277.37 182.407C1277.85 182.288 1278.34 182.312 1278.8 182.476C1279.26 182.64 1279.66 182.937 1279.95 183.329C1280.25 183.721 1280.41 184.19 1280.44 184.678C1280.46 185.166 1280.34 185.65 1280.09 186.068C1279.84 186.487 1279.47 186.822 1279.03 187.031C1278.59 187.24 1278.1 187.313 1277.61 187.242C1277.13 187.171 1276.68 186.958 1276.32 186.63C1275.83 186.191 1275.54 185.577 1275.51 184.923C1275.48 184.269 1275.7 183.629 1276.14 183.144Z" fill="white"/>
<path d="M1253.52 162.663C1253.85 162.301 1254.28 162.044 1254.75 161.925C1255.22 161.806 1255.72 161.831 1256.18 161.995C1256.64 162.159 1257.04 162.456 1257.33 162.848C1257.62 163.24 1257.79 163.709 1257.82 164.197C1257.84 164.684 1257.72 165.168 1257.47 165.587C1257.22 166.006 1256.85 166.341 1256.41 166.55C1255.97 166.759 1255.47 166.832 1254.99 166.761C1254.51 166.689 1254.06 166.477 1253.7 166.149C1253.21 165.71 1252.92 165.096 1252.89 164.442C1252.85 163.788 1253.08 163.148 1253.52 162.663Z" fill="white"/>
<path d="M1230.9 142.182C1231.34 141.696 1231.95 141.405 1232.61 141.373C1233.26 141.341 1233.9 141.569 1234.39 142.008C1234.87 142.448 1235.16 143.062 1235.2 143.716C1235.23 144.37 1235 145.009 1234.56 145.495C1234.12 145.98 1233.51 146.271 1232.85 146.303C1232.2 146.336 1231.56 146.107 1231.07 145.668C1230.59 145.228 1230.3 144.614 1230.27 143.961C1230.23 143.307 1230.46 142.667 1230.9 142.182Z" fill="white"/>
<path d="M1208.28 121.7C1208.61 121.328 1209.04 121.061 1209.52 120.936C1210 120.81 1210.51 120.831 1210.98 120.995C1211.45 121.159 1211.86 121.459 1212.16 121.858C1212.45 122.256 1212.63 122.734 1212.65 123.231C1212.68 123.727 1212.55 124.22 1212.29 124.646C1212.04 125.072 1211.66 125.411 1211.21 125.621C1210.76 125.831 1210.26 125.902 1209.76 125.824C1209.27 125.747 1208.82 125.525 1208.45 125.186C1207.97 124.743 1207.69 124.13 1207.66 123.479C1207.62 122.828 1207.85 122.189 1208.28 121.7Z" fill="white"/>
<path d="M1189.17 101.067C1188.16 100.153 1186.6 100.23 1185.68 101.241C1184.77 102.251 1184.84 103.812 1185.85 104.727C1186.86 105.642 1188.43 105.564 1189.34 104.554C1190.26 103.543 1190.18 101.982 1189.17 101.067Z" fill="white"/>
<path d="M1294.11 163.302C1294.44 162.941 1294.86 162.684 1295.34 162.565C1295.81 162.446 1296.31 162.47 1296.77 162.635C1297.23 162.799 1297.63 163.096 1297.92 163.488C1298.21 163.879 1298.38 164.349 1298.4 164.837C1298.43 165.324 1298.31 165.808 1298.06 166.227C1297.8 166.646 1297.43 166.981 1296.99 167.19C1296.55 167.399 1296.06 167.472 1295.58 167.401C1295.09 167.329 1294.64 167.116 1294.28 166.789C1294.04 166.574 1293.84 166.312 1293.7 166.019C1293.56 165.725 1293.47 165.407 1293.46 165.082C1293.44 164.757 1293.49 164.432 1293.6 164.127C1293.71 163.821 1293.89 163.541 1294.11 163.302Z" fill="white"/>
<path d="M1271.49 142.821C1271.81 142.459 1272.24 142.203 1272.72 142.084C1273.19 141.965 1273.69 141.989 1274.15 142.153C1274.61 142.318 1275.01 142.615 1275.3 143.007C1275.59 143.399 1275.76 143.868 1275.78 144.355C1275.81 144.843 1275.68 145.327 1275.43 145.746C1275.18 146.165 1274.81 146.5 1274.37 146.709C1273.93 146.918 1273.44 146.991 1272.96 146.919C1272.47 146.848 1272.02 146.635 1271.66 146.308C1271.42 146.092 1271.22 145.83 1271.08 145.537C1270.93 145.244 1270.85 144.926 1270.84 144.601C1270.82 144.276 1270.87 143.951 1270.98 143.645C1271.09 143.34 1271.26 143.06 1271.49 142.821Z" fill="white"/>
<path d="M1248.86 122.34C1249.19 121.978 1249.62 121.722 1250.09 121.603C1250.57 121.484 1251.06 121.508 1251.52 121.672C1251.98 121.836 1252.38 122.133 1252.68 122.525C1252.97 122.917 1253.14 123.387 1253.16 123.874C1253.18 124.362 1253.06 124.846 1252.81 125.265C1252.56 125.683 1252.19 126.018 1251.75 126.227C1251.31 126.436 1250.82 126.51 1250.33 126.438C1249.85 126.367 1249.4 126.154 1249.04 125.826C1248.55 125.387 1248.26 124.773 1248.23 124.119C1248.2 123.465 1248.42 122.825 1248.86 122.34Z" fill="white"/>
<path d="M1226.24 101.859C1226.57 101.486 1227 101.22 1227.49 101.094C1227.97 100.968 1228.47 100.989 1228.94 101.153C1229.41 101.318 1229.82 101.618 1230.12 102.016C1230.42 102.415 1230.59 102.893 1230.61 103.389C1230.64 103.886 1230.52 104.379 1230.26 104.804C1230 105.23 1229.62 105.57 1229.17 105.78C1228.72 105.99 1228.22 106.061 1227.73 105.983C1227.24 105.906 1226.78 105.683 1226.42 105.345C1225.93 104.906 1225.64 104.292 1225.61 103.638C1225.57 102.984 1225.8 102.344 1226.24 101.859Z" fill="white"/>
<path d="M1207.13 81.226C1206.12 80.3111 1204.56 80.3887 1203.64 81.3992C1202.73 82.4097 1202.81 83.9705 1203.82 84.8854C1204.83 85.8003 1206.39 85.7228 1207.3 84.7123C1208.22 83.7018 1208.14 82.1409 1207.13 81.226Z" fill="white"/>
<path d="M1312.07 143.461C1312.4 143.099 1312.83 142.842 1313.3 142.724C1313.77 142.605 1314.27 142.629 1314.73 142.793C1315.19 142.957 1315.59 143.254 1315.88 143.646C1316.17 144.038 1316.34 144.508 1316.37 144.995C1316.39 145.483 1316.27 145.967 1316.02 146.385C1315.77 146.804 1315.4 147.139 1314.96 147.348C1314.52 147.557 1314.02 147.63 1313.54 147.559C1313.06 147.488 1312.61 147.275 1312.24 146.947C1312 146.732 1311.8 146.47 1311.66 146.177C1311.52 145.884 1311.44 145.566 1311.42 145.241C1311.41 144.916 1311.46 144.591 1311.57 144.285C1311.68 143.98 1311.85 143.699 1312.07 143.461Z" fill="white"/>
<path d="M1289.45 122.98C1289.78 122.618 1290.21 122.361 1290.68 122.242C1291.15 122.124 1291.65 122.148 1292.11 122.312C1292.57 122.476 1292.97 122.773 1293.26 123.165C1293.55 123.557 1293.72 124.026 1293.75 124.514C1293.77 125.001 1293.65 125.485 1293.4 125.904C1293.15 126.323 1292.78 126.658 1292.34 126.867C1291.9 127.076 1291.4 127.149 1290.92 127.078C1290.44 127.007 1289.99 126.794 1289.62 126.466C1289.38 126.251 1289.18 125.989 1289.04 125.696C1288.9 125.403 1288.82 125.084 1288.8 124.759C1288.79 124.435 1288.83 124.11 1288.95 123.804C1289.06 123.498 1289.23 123.218 1289.45 122.98Z" fill="white"/>
<path d="M1266.83 102.499C1267.16 102.137 1267.58 101.88 1268.06 101.761C1268.53 101.642 1269.03 101.667 1269.49 101.831C1269.95 101.995 1270.35 102.292 1270.64 102.684C1270.93 103.076 1271.1 103.545 1271.12 104.033C1271.15 104.52 1271.03 105.004 1270.78 105.423C1270.52 105.842 1270.16 106.177 1269.71 106.386C1269.27 106.595 1268.78 106.668 1268.3 106.597C1267.81 106.526 1267.36 106.313 1267 105.985C1266.52 105.546 1266.23 104.931 1266.19 104.278C1266.16 103.624 1266.39 102.984 1266.83 102.499Z" fill="white"/>
<path d="M1244.21 82.0175C1244.54 81.6447 1244.97 81.3783 1245.45 81.2526C1245.93 81.1269 1246.44 81.1477 1246.91 81.3119C1247.38 81.4762 1247.79 81.7766 1248.08 82.1748C1248.38 82.5731 1248.55 83.0512 1248.58 83.5478C1248.6 84.0444 1248.48 84.5371 1248.22 84.9629C1247.97 85.3887 1247.59 85.7281 1247.14 85.9381C1246.69 86.148 1246.18 86.219 1245.69 86.1416C1245.2 86.0642 1244.74 85.842 1244.38 85.5036C1243.89 85.0643 1243.6 84.4502 1243.57 83.7964C1243.54 83.1426 1243.77 82.5028 1244.21 82.0175Z" fill="white"/>
<path d="M1221.59 61.5363C1221.91 61.1645 1222.34 60.8984 1222.82 60.7723C1223.3 60.6461 1223.81 60.6656 1224.28 60.8279C1224.75 60.9902 1225.16 61.2881 1225.46 61.6838C1225.75 62.0796 1225.93 62.5552 1225.96 63.0503C1225.98 63.5454 1225.86 64.0376 1225.61 64.4643C1225.36 64.8909 1224.99 65.2327 1224.54 65.4465C1224.09 65.6602 1223.59 65.7361 1223.1 65.6645C1222.61 65.5928 1222.15 65.3767 1221.78 65.0439C1221.54 64.8277 1221.34 64.565 1221.19 64.271C1221.05 63.977 1220.97 63.6576 1220.95 63.3312C1220.93 63.0049 1220.98 62.6783 1221.09 62.3702C1221.2 62.0621 1221.37 61.7786 1221.59 61.5363Z" fill="white"/>
<path d="M1330.04 123.62C1330.48 123.134 1331.09 122.844 1331.74 122.811C1332.4 122.779 1333.04 123.007 1333.52 123.447C1334.01 123.886 1334.3 124.5 1334.33 125.154C1334.36 125.807 1334.14 126.448 1333.7 126.933C1333.26 127.418 1332.64 127.709 1331.99 127.741C1331.33 127.774 1330.69 127.545 1330.21 127.106C1329.72 126.667 1329.43 126.053 1329.4 125.399C1329.37 124.745 1329.6 124.105 1330.04 123.62Z" fill="white"/>
<path d="M1307.41 103.138C1307.75 102.782 1308.18 102.531 1308.65 102.418C1309.12 102.305 1309.62 102.334 1310.08 102.502C1310.53 102.67 1310.93 102.97 1311.22 103.363C1311.5 103.756 1311.67 104.226 1311.69 104.712C1311.71 105.198 1311.59 105.68 1311.33 106.096C1311.08 106.513 1310.71 106.845 1310.27 107.052C1309.83 107.259 1309.34 107.332 1308.86 107.26C1308.38 107.188 1307.93 106.975 1307.57 106.648C1307.32 106.429 1307.13 106.164 1306.99 105.868C1306.85 105.572 1306.77 105.252 1306.76 104.925C1306.74 104.599 1306.79 104.272 1306.91 103.966C1307.02 103.659 1307.19 103.378 1307.41 103.138Z" fill="white"/>
<path d="M1284.79 82.657C1285.12 82.3004 1285.55 82.0498 1286.03 81.9367C1286.5 81.8235 1287 81.853 1287.45 82.0212C1287.91 82.1894 1288.31 82.4887 1288.59 82.8819C1288.88 83.2751 1289.05 83.7445 1289.07 84.2308C1289.09 84.7172 1288.96 85.1987 1288.71 85.6152C1288.46 86.0317 1288.09 86.3644 1287.65 86.5714C1287.21 86.7783 1286.72 86.8503 1286.24 86.7784C1285.75 86.7065 1285.3 86.4937 1284.94 86.167C1284.46 85.7194 1284.18 85.1002 1284.15 84.4432C1284.12 83.7862 1284.35 83.1444 1284.79 82.657Z" fill="white"/>
<path d="M1262.17 62.176C1262.5 61.8085 1262.94 61.548 1263.42 61.4281C1263.9 61.3081 1264.41 61.334 1264.87 61.5023C1265.34 61.6706 1265.74 61.9739 1266.04 62.3734C1266.33 62.773 1266.5 63.251 1266.52 63.7464C1266.54 64.2418 1266.42 64.7322 1266.16 65.1556C1265.9 65.579 1265.52 65.9162 1265.07 66.1241C1264.62 66.332 1264.12 66.4012 1263.63 66.3232C1263.14 66.2452 1262.69 66.0233 1262.32 65.6858C1261.84 65.2383 1261.55 64.619 1261.53 63.962C1261.5 63.3051 1261.73 62.6635 1262.17 62.176Z" fill="white"/>
<path d="M1239.55 41.6948C1239.88 41.3283 1240.31 41.0684 1240.79 40.948C1241.27 40.8276 1241.78 40.8519 1242.24 41.0183C1242.71 41.1846 1243.12 41.4853 1243.41 41.8824C1243.71 42.2794 1243.88 42.755 1243.9 43.2489C1243.92 43.7428 1243.8 44.2327 1243.55 44.657C1243.29 45.0813 1242.92 45.4208 1242.47 45.6325C1242.03 45.8442 1241.53 45.9184 1241.04 45.8461C1240.55 45.7738 1240.09 45.5581 1239.72 45.2262C1239.23 44.7811 1238.94 44.1591 1238.91 43.4968C1238.87 42.8345 1239.1 42.1864 1239.55 41.6948Z" fill="white"/>
<path d="M1347.98 103.802C1348.31 103.44 1348.73 103.183 1349.21 103.065C1349.68 102.946 1350.18 102.97 1350.64 103.134C1351.1 103.298 1351.5 103.595 1351.79 103.987C1352.08 104.379 1352.25 104.848 1352.27 105.336C1352.3 105.824 1352.18 106.308 1351.93 106.726C1351.68 107.145 1351.31 107.48 1350.86 107.689C1350.42 107.898 1349.93 107.971 1349.45 107.9C1348.96 107.829 1348.51 107.616 1348.15 107.288C1347.67 106.849 1347.38 106.235 1347.34 105.581C1347.31 104.927 1347.54 104.287 1347.98 103.802Z" fill="white"/>
<path d="M1325.36 83.3207C1325.68 82.9588 1326.11 82.7022 1326.59 82.5833C1327.06 82.4644 1327.56 82.4887 1328.02 82.653C1328.48 82.8172 1328.88 83.1141 1329.17 83.5061C1329.46 83.898 1329.63 84.3672 1329.65 84.8548C1329.68 85.3424 1329.55 85.8263 1329.3 86.2452C1329.05 86.664 1328.68 86.9991 1328.24 87.2081C1327.8 87.417 1327.31 87.4902 1326.83 87.4188C1326.34 87.3475 1325.89 87.1347 1325.53 86.807C1325.04 86.3677 1324.75 85.7536 1324.72 85.0998C1324.69 84.446 1324.92 83.8059 1325.36 83.3207Z" fill="white"/>
<path d="M1302.74 62.8395C1303.17 62.3543 1303.79 62.0635 1304.44 62.0311C1305.1 61.9986 1305.74 62.2271 1306.22 62.6665C1306.71 63.1058 1307 63.7201 1307.03 64.3739C1307.06 65.0277 1306.83 65.6675 1306.39 66.1527C1305.96 66.638 1305.34 66.9291 1304.69 66.9615C1304.03 66.994 1303.39 66.7652 1302.91 66.3259C1302.42 65.8865 1302.13 65.2725 1302.1 64.6187C1302.07 63.9649 1302.3 63.3248 1302.74 62.8395Z" fill="white"/>
<path d="M1280.11 42.3584C1280.44 41.9856 1280.88 41.7192 1281.36 41.5935C1281.84 41.4678 1282.35 41.4885 1282.81 41.6528C1283.28 41.8171 1283.69 42.1174 1283.99 42.5157C1284.29 42.914 1284.46 43.3921 1284.49 43.8887C1284.51 44.3853 1284.39 44.878 1284.13 45.3038C1283.87 45.7296 1283.5 46.069 1283.04 46.2789C1282.59 46.4889 1282.09 46.5599 1281.6 46.4825C1281.11 46.4051 1280.65 46.1829 1280.29 45.8445C1279.81 45.4007 1279.52 44.7881 1279.49 44.1368C1279.46 43.4855 1279.68 42.8474 1280.11 42.3584Z" fill="white"/>
<path d="M1261 21.7254C1259.99 20.8105 1258.43 20.888 1257.52 21.8986C1256.6 22.9091 1256.68 24.4699 1257.69 25.3848C1258.7 26.2997 1260.26 26.2222 1261.18 25.2117C1262.09 24.2012 1262.01 22.6403 1261 21.7254Z" fill="white"/>
</g>
<g opacity="0.2">
<path d="M1239.14 950.144C1239.47 949.782 1239.9 949.525 1240.37 949.407C1240.85 949.288 1241.34 949.312 1241.8 949.476C1242.26 949.64 1242.66 949.937 1242.95 950.329C1243.25 950.721 1243.41 951.19 1243.44 951.678C1243.46 952.166 1243.34 952.65 1243.09 953.068C1242.84 953.487 1242.47 953.822 1242.03 954.031C1241.59 954.24 1241.1 954.313 1240.61 954.242C1240.13 954.171 1239.68 953.958 1239.32 953.63C1238.83 953.191 1238.54 952.577 1238.51 951.923C1238.48 951.269 1238.7 950.629 1239.14 950.144Z" fill="white"/>
<path d="M1216.52 929.663C1216.85 929.301 1217.28 929.044 1217.75 928.925C1218.22 928.806 1218.72 928.831 1219.18 928.995C1219.64 929.159 1220.04 929.456 1220.33 929.848C1220.62 930.24 1220.79 930.709 1220.82 931.197C1220.84 931.684 1220.72 932.168 1220.47 932.587C1220.22 933.006 1219.85 933.341 1219.41 933.55C1218.97 933.759 1218.47 933.832 1217.99 933.761C1217.51 933.689 1217.06 933.477 1216.7 933.149C1216.21 932.71 1215.92 932.096 1215.89 931.442C1215.85 930.788 1216.08 930.148 1216.52 929.663Z" fill="white"/>
<path d="M1193.9 909.182C1194.34 908.696 1194.95 908.405 1195.61 908.373C1196.26 908.341 1196.9 908.569 1197.39 909.008C1197.87 909.448 1198.16 910.062 1198.2 910.716C1198.23 911.37 1198 912.009 1197.56 912.495C1197.12 912.98 1196.51 913.271 1195.85 913.303C1195.2 913.336 1194.56 913.107 1194.07 912.668C1193.59 912.228 1193.3 911.614 1193.27 910.961C1193.23 910.307 1193.46 909.667 1193.9 909.182Z" fill="white"/>
<path d="M1171.28 888.701C1171.61 888.328 1172.04 888.061 1172.52 887.936C1173 887.81 1173.51 887.831 1173.98 887.995C1174.45 888.159 1174.86 888.459 1175.16 888.858C1175.45 889.256 1175.63 889.734 1175.65 890.231C1175.68 890.727 1175.55 891.22 1175.29 891.646C1175.04 892.072 1174.66 892.411 1174.21 892.621C1173.76 892.831 1173.26 892.902 1172.76 892.824C1172.27 892.747 1171.82 892.525 1171.45 892.187C1170.97 891.743 1170.69 891.13 1170.66 890.479C1170.62 889.828 1170.85 889.189 1171.28 888.701Z" fill="white"/>
<path d="M1152.17 868.067C1151.16 867.153 1149.6 867.23 1148.68 868.241C1147.77 869.251 1147.84 870.812 1148.85 871.727C1149.86 872.642 1151.43 872.564 1152.34 871.554C1153.26 870.543 1153.18 868.982 1152.17 868.067Z" fill="white"/>
<path d="M1257.11 930.302C1257.44 929.941 1257.86 929.684 1258.34 929.565C1258.81 929.446 1259.31 929.47 1259.77 929.635C1260.23 929.799 1260.63 930.096 1260.92 930.488C1261.21 930.879 1261.38 931.349 1261.4 931.837C1261.43 932.324 1261.31 932.808 1261.06 933.227C1260.8 933.646 1260.43 933.981 1259.99 934.19C1259.55 934.399 1259.06 934.472 1258.58 934.401C1258.09 934.329 1257.64 934.116 1257.28 933.789C1257.04 933.574 1256.84 933.312 1256.7 933.019C1256.56 932.725 1256.47 932.407 1256.46 932.082C1256.44 931.757 1256.49 931.432 1256.6 931.127C1256.71 930.821 1256.89 930.541 1257.11 930.302Z" fill="white"/>
<path d="M1234.49 909.821C1234.81 909.459 1235.24 909.203 1235.72 909.084C1236.19 908.965 1236.69 908.989 1237.15 909.153C1237.61 909.318 1238.01 909.615 1238.3 910.007C1238.59 910.399 1238.76 910.868 1238.78 911.355C1238.81 911.843 1238.68 912.327 1238.43 912.746C1238.18 913.165 1237.81 913.5 1237.37 913.709C1236.93 913.918 1236.44 913.991 1235.96 913.919C1235.47 913.848 1235.02 913.635 1234.66 913.308C1234.42 913.092 1234.22 912.83 1234.08 912.537C1233.93 912.244 1233.85 911.926 1233.84 911.601C1233.82 911.276 1233.87 910.951 1233.98 910.645C1234.09 910.34 1234.26 910.06 1234.49 909.821Z" fill="white"/>
<path d="M1211.86 889.34C1212.19 888.978 1212.62 888.722 1213.09 888.603C1213.57 888.484 1214.06 888.508 1214.52 888.672C1214.98 888.836 1215.38 889.133 1215.68 889.525C1215.97 889.917 1216.14 890.387 1216.16 890.874C1216.18 891.362 1216.06 891.846 1215.81 892.265C1215.56 892.683 1215.19 893.018 1214.75 893.227C1214.31 893.436 1213.82 893.51 1213.33 893.438C1212.85 893.367 1212.4 893.154 1212.04 892.826C1211.55 892.387 1211.26 891.773 1211.23 891.119C1211.2 890.465 1211.42 889.825 1211.86 889.34Z" fill="white"/>
<path d="M1189.24 868.859C1189.57 868.486 1190 868.22 1190.49 868.094C1190.97 867.968 1191.47 867.989 1191.94 868.153C1192.41 868.318 1192.82 868.618 1193.12 869.016C1193.42 869.415 1193.59 869.893 1193.61 870.389C1193.64 870.886 1193.52 871.379 1193.26 871.804C1193 872.23 1192.62 872.57 1192.17 872.78C1191.72 872.99 1191.22 873.061 1190.73 872.983C1190.24 872.906 1189.78 872.683 1189.42 872.345C1188.93 871.906 1188.64 871.292 1188.61 870.638C1188.57 869.984 1188.8 869.344 1189.24 868.859Z" fill="white"/>
<path d="M1170.13 848.226C1169.12 847.311 1167.56 847.389 1166.64 848.399C1165.73 849.41 1165.81 850.971 1166.82 851.885C1167.83 852.8 1169.39 852.723 1170.3 851.712C1171.22 850.702 1171.14 849.141 1170.13 848.226Z" fill="white"/>
<path d="M1275.07 910.461C1275.4 910.099 1275.83 909.842 1276.3 909.724C1276.77 909.605 1277.27 909.629 1277.73 909.793C1278.19 909.957 1278.59 910.254 1278.88 910.646C1279.17 911.038 1279.34 911.508 1279.37 911.995C1279.39 912.483 1279.27 912.967 1279.02 913.385C1278.77 913.804 1278.4 914.139 1277.96 914.348C1277.52 914.557 1277.02 914.63 1276.54 914.559C1276.06 914.488 1275.61 914.275 1275.24 913.947C1275 913.732 1274.8 913.47 1274.66 913.177C1274.52 912.884 1274.44 912.566 1274.42 912.241C1274.41 911.916 1274.46 911.591 1274.57 911.285C1274.68 910.98 1274.85 910.699 1275.07 910.461Z" fill="white"/>
<path d="M1252.45 889.98C1252.78 889.618 1253.21 889.361 1253.68 889.242C1254.15 889.124 1254.65 889.148 1255.11 889.312C1255.57 889.476 1255.97 889.773 1256.26 890.165C1256.55 890.557 1256.72 891.026 1256.75 891.514C1256.77 892.001 1256.65 892.485 1256.4 892.904C1256.15 893.323 1255.78 893.658 1255.34 893.867C1254.9 894.076 1254.4 894.149 1253.92 894.078C1253.44 894.007 1252.99 893.794 1252.62 893.466C1252.38 893.251 1252.18 892.989 1252.04 892.696C1251.9 892.403 1251.82 892.084 1251.8 891.759C1251.79 891.434 1251.83 891.11 1251.95 890.804C1252.06 890.498 1252.23 890.218 1252.45 889.98Z" fill="white"/>
<path d="M1229.83 869.499C1230.16 869.137 1230.58 868.88 1231.06 868.761C1231.53 868.642 1232.03 868.667 1232.49 868.831C1232.95 868.995 1233.35 869.292 1233.64 869.684C1233.93 870.076 1234.1 870.545 1234.12 871.033C1234.15 871.521 1234.03 872.004 1233.78 872.423C1233.52 872.842 1233.16 873.177 1232.71 873.386C1232.27 873.595 1231.78 873.668 1231.3 873.597C1230.81 873.526 1230.36 873.313 1230 872.985C1229.52 872.546 1229.23 871.931 1229.19 871.278C1229.16 870.624 1229.39 869.984 1229.83 869.499Z" fill="white"/>
<path d="M1207.21 849.018C1207.54 848.645 1207.97 848.378 1208.45 848.253C1208.93 848.127 1209.44 848.148 1209.91 848.312C1210.38 848.476 1210.79 848.777 1211.08 849.175C1211.38 849.573 1211.55 850.051 1211.58 850.548C1211.6 851.044 1211.48 851.537 1211.22 851.963C1210.97 852.389 1210.59 852.728 1210.14 852.938C1209.69 853.148 1209.18 853.219 1208.69 853.142C1208.2 853.064 1207.74 852.842 1207.38 852.504C1206.89 852.064 1206.6 851.45 1206.57 850.796C1206.54 850.143 1206.77 849.503 1207.21 849.018Z" fill="white"/>
<path d="M1184.59 828.536C1184.91 828.165 1185.34 827.898 1185.82 827.772C1186.3 827.646 1186.81 827.666 1187.28 827.828C1187.75 827.99 1188.16 828.288 1188.46 828.684C1188.75 829.08 1188.93 829.555 1188.96 830.05C1188.98 830.545 1188.86 831.038 1188.61 831.464C1188.36 831.891 1187.99 832.233 1187.54 832.446C1187.09 832.66 1186.59 832.736 1186.1 832.664C1185.61 832.593 1185.15 832.377 1184.78 832.044C1184.54 831.828 1184.34 831.565 1184.19 831.271C1184.05 830.977 1183.97 830.658 1183.95 830.331C1183.93 830.005 1183.98 829.678 1184.09 829.37C1184.2 829.062 1184.37 828.779 1184.59 828.536Z" fill="white"/>
<path d="M1293.04 890.62C1293.48 890.134 1294.09 889.844 1294.74 889.811C1295.4 889.779 1296.04 890.007 1296.52 890.447C1297.01 890.886 1297.3 891.5 1297.33 892.154C1297.36 892.807 1297.14 893.448 1296.7 893.933C1296.26 894.418 1295.64 894.709 1294.99 894.741C1294.33 894.774 1293.69 894.545 1293.21 894.106C1292.72 893.667 1292.43 893.053 1292.4 892.399C1292.37 891.745 1292.6 891.105 1293.04 890.62Z" fill="white"/>
<path d="M1270.41 870.138C1270.75 869.782 1271.18 869.531 1271.65 869.418C1272.12 869.305 1272.62 869.334 1273.08 869.502C1273.53 869.67 1273.93 869.97 1274.22 870.363C1274.5 870.756 1274.67 871.226 1274.69 871.712C1274.71 872.198 1274.59 872.68 1274.33 873.096C1274.08 873.513 1273.71 873.845 1273.27 874.052C1272.83 874.259 1272.34 874.332 1271.86 874.26C1271.38 874.188 1270.93 873.975 1270.57 873.648C1270.32 873.429 1270.13 873.164 1269.99 872.868C1269.85 872.572 1269.77 872.252 1269.76 871.925C1269.74 871.599 1269.79 871.273 1269.91 870.966C1270.02 870.659 1270.19 870.378 1270.41 870.138Z" fill="white"/>
<path d="M1247.79 849.657C1248.12 849.3 1248.55 849.05 1249.03 848.937C1249.5 848.824 1250 848.853 1250.45 849.021C1250.91 849.189 1251.31 849.489 1251.59 849.882C1251.88 850.275 1252.05 850.745 1252.07 851.231C1252.09 851.717 1251.96 852.199 1251.71 852.615C1251.46 853.032 1251.09 853.364 1250.65 853.571C1250.21 853.778 1249.72 853.85 1249.24 853.778C1248.75 853.706 1248.3 853.494 1247.94 853.167C1247.46 852.719 1247.18 852.1 1247.15 851.443C1247.12 850.786 1247.35 850.144 1247.79 849.657Z" fill="white"/>
<path d="M1225.17 829.176C1225.5 828.808 1225.94 828.548 1226.42 828.428C1226.9 828.308 1227.41 828.334 1227.87 828.502C1228.34 828.671 1228.74 828.974 1229.04 829.373C1229.33 829.773 1229.5 830.251 1229.52 830.746C1229.54 831.242 1229.42 831.732 1229.16 832.156C1228.9 832.579 1228.52 832.916 1228.07 833.124C1227.62 833.332 1227.12 833.401 1226.63 833.323C1226.14 833.245 1225.69 833.023 1225.32 832.686C1224.84 832.238 1224.55 831.619 1224.53 830.962C1224.5 830.305 1224.73 829.663 1225.17 829.176Z" fill="white"/>
<path d="M1202.55 808.695C1202.88 808.328 1203.31 808.068 1203.79 807.948C1204.27 807.828 1204.78 807.852 1205.24 808.018C1205.71 808.185 1206.12 808.485 1206.41 808.882C1206.71 809.279 1206.88 809.755 1206.9 810.249C1206.92 810.743 1206.8 811.233 1206.55 811.657C1206.29 812.081 1205.92 812.421 1205.47 812.633C1205.03 812.844 1204.53 812.918 1204.04 812.846C1203.55 812.774 1203.09 812.558 1202.72 812.226C1202.23 811.781 1201.94 811.159 1201.91 810.497C1201.87 809.834 1202.1 809.186 1202.55 808.695Z" fill="white"/>
<path d="M1310.98 870.802C1311.31 870.44 1311.73 870.183 1312.21 870.064C1312.68 869.946 1313.18 869.97 1313.64 870.134C1314.1 870.298 1314.5 870.595 1314.79 870.987C1315.08 871.379 1315.25 871.848 1315.27 872.336C1315.3 872.824 1315.18 873.308 1314.93 873.726C1314.68 874.145 1314.31 874.48 1313.86 874.689C1313.42 874.898 1312.93 874.971 1312.45 874.9C1311.96 874.829 1311.51 874.616 1311.15 874.288C1310.67 873.849 1310.38 873.235 1310.34 872.581C1310.31 871.927 1310.54 871.287 1310.98 870.802Z" fill="white"/>
<path d="M1288.36 850.321C1288.68 849.959 1289.11 849.702 1289.59 849.583C1290.06 849.464 1290.56 849.489 1291.02 849.653C1291.48 849.817 1291.88 850.114 1292.17 850.506C1292.46 850.898 1292.63 851.367 1292.65 851.855C1292.68 852.342 1292.55 852.826 1292.3 853.245C1292.05 853.664 1291.68 853.999 1291.24 854.208C1290.8 854.417 1290.31 854.49 1289.83 854.419C1289.34 854.347 1288.89 854.135 1288.53 853.807C1288.04 853.368 1287.75 852.754 1287.72 852.1C1287.69 851.446 1287.92 850.806 1288.36 850.321Z" fill="white"/>
<path d="M1265.74 829.839C1266.17 829.354 1266.79 829.064 1267.44 829.031C1268.1 828.999 1268.74 829.227 1269.22 829.666C1269.71 830.106 1270 830.72 1270.03 831.374C1270.06 832.028 1269.83 832.667 1269.39 833.153C1268.96 833.638 1268.34 833.929 1267.69 833.961C1267.03 833.994 1266.39 833.765 1265.91 833.326C1265.42 832.886 1265.13 832.272 1265.1 831.619C1265.07 830.965 1265.3 830.325 1265.74 829.839Z" fill="white"/>
<path d="M1243.11 809.358C1243.44 808.986 1243.88 808.719 1244.36 808.593C1244.84 808.468 1245.35 808.489 1245.81 808.653C1246.28 808.817 1246.69 809.117 1246.99 809.516C1247.29 809.914 1247.46 810.392 1247.49 810.889C1247.51 811.385 1247.39 811.878 1247.13 812.304C1246.87 812.73 1246.5 813.069 1246.04 813.279C1245.59 813.489 1245.09 813.56 1244.6 813.482C1244.11 813.405 1243.65 813.183 1243.29 812.845C1242.81 812.401 1242.52 811.788 1242.49 811.137C1242.46 810.486 1242.68 809.847 1243.11 809.358Z" fill="white"/>
<path d="M1224 788.725C1222.99 787.811 1221.43 787.888 1220.52 788.899C1219.6 789.909 1219.68 791.47 1220.69 792.385C1221.7 793.3 1223.26 793.222 1224.18 792.212C1225.09 791.201 1225.01 789.64 1224 788.725Z" fill="white"/>
</g>
</g>
<defs>
<radialGradient id="paint0_radial_303_735" cx="0" cy="0" r="1" gradientUnits="userSpaceOnUse" gradientTransform="translate(185.942 -287.646) scale(1728.44 1777.09)">
<stop stop-color="#6868FA"/>
<stop offset="0.99" stop-color="#4524CB"/>
</radialGradient>
</defs>
</svg>
