<?xml version="1.0" encoding="utf-8"?>
<!-- Generator: Adobe Illustrator 22.0.1, SVG Export Plug-In . SVG Version: 6.00 Build 0)  -->
<svg version="1.1" id="Layer_1" xmlns="http://www.w3.org/2000/svg" xmlns:xlink="http://www.w3.org/1999/xlink" x="0px" y="0px"
	 viewBox="0 0 166.8 130" style="enable-background:new 0 0 166.8 130;" xml:space="preserve">
<style type="text/css">
	.st0{fill:#EE3A39;}
</style>
<g>
	<g id="LWPOLYLINE_2_">
		<path id="XMLID_90_" class="st0" d="M42.3,20.9c5.8-2.3,12.3,0.6,14.8,6.4C61.8,34,71,35.7,77.7,31c4.4-3.1,6.8-8.2,6.2-13.6
			c0-2.4-1.8-4.3-4.3-4.3c-2.4,0-4.3,1.8-4.3,4.3c0,1.1,0.4,2.3,1.3,3c-4.4-4.4-4.4-11.6,0-16c4.4-4.4,11.6-4.4,16,0
			c4.4,4.4,4.4,11.6,0,16s-4.4,11.6,0,16s11.6,4.4,16,0c2.1-2.1,3.3-5,3.3-8.1c0-1.6,0.4-3,1.1-4.3c2.4-4.1,7.5-5.5,11.6-3.1
			c-2.8,1.1-4.3,4.5-3.1,7.4c5.1,11.2,18.4,16,29.5,10.8c11.2-5.1,16-18.4,10.8-29.5c-0.1-0.1-0.1-0.3-0.3-0.4
			c8.4,17.9,4.3,39.2-10.2,52.5c-4.3-10.1-16-14.8-26.1-10.5c-4.4,1.8-7.9,5.1-9.9,9.4c-2.3,4.5-0.4,10.1,4.1,12.3
			c1.1,0.6,2.3,0.9,3.5,1c-7.2,0.1-14.3-1.6-20.7-4.7c4.7-0.9,7.7-5.4,6.8-9.9c-0.9-4.7-5.4-7.7-9.9-6.8c-4,0.9-7,4.3-7,8.4
			c0,4.5,1.8,8.8,5,12.1c4.3,4.3,6.7,10.1,6.7,16c0-4.7-3.8-8.5-8.5-8.5c-4.7,0-8.5,3.8-8.5,8.5c0,4.5,1.8,8.8,5,12.1
			c2,2,3.4,4.4,4.3,7.1c2.7,9.1-2.4,18.6-11.5,21.3c4-10.4,2-22.1-5.1-30.7c-7.5-10.2-8.4-23.8-2.1-34.9c2.8-4.3,1.7-9.9-2.6-12.8
			c-4.3-2.8-9.9-1.7-12.8,2.6s-1.7,9.9,2.6,12.8c1.3,0.9,2.8,1.4,4.5,1.6c-7,4-14.9,6-23,6c5.1-0.3,8.9-4.7,8.7-9.8
			c-0.1-1.3-0.4-2.4-1-3.5c-5-9.8-16.9-13.8-26.7-8.8c-4.7,2.3-8.2,6.4-9.9,11.4C1.6,49.7-3.2,27.7,5.4,9.1
			c-5.5,10.9-1.1,24.1,9.8,29.7s24.1,1.1,29.7-9.8c0.1-0.3,0.3-0.4,0.3-0.7c1.4-2.6,0.4-5.7-2.1-7.1C42.9,21.2,42.6,21,42.3,20.9z"
			/>
	</g>
</g>
</svg>
