<?xml version="1.0" encoding="utf-8"?>
<!-- Generator: Adobe Illustrator 21.1.0, SVG Export Plug-In . SVG Version: 6.00 Build 0)  -->
<svg version="1.1" id="Layer_1" xmlns="http://www.w3.org/2000/svg" xmlns:xlink="http://www.w3.org/1999/xlink" x="0px" y="0px"
	 viewBox="0 0 180 130" style="enable-background:new 0 0 180 130;" xml:space="preserve">
<style type="text/css">
	.st0{fill:#EE3A39;}
</style>
<g>
	<g id="LWPOLYLINE_2_">
		<path id="XMLID_90_" class="st0" d="M60.9,23.1c4.1-1.6,8.7,0.4,10.4,4.5c3.3,4.7,9.8,5.9,14.5,2.6c3.1-2.2,4.8-5.8,4.4-9.6
			c0-1.7-1.3-3-3-3c-1.7,0-3,1.3-3,3c0,0.8,0.3,1.6,0.9,2.1c-3.1-3.1-3.1-8.2,0-11.3c3.1-3.1,8.2-3.1,11.3,0c3.1,3.1,3.1,8.2,0,11.3
			c-3.1,3.1-3.1,8.2,0,11.3c3.1,3.1,8.2,3.1,11.3,0c1.5-1.5,2.3-3.5,2.3-5.7c0-1.1,0.3-2.1,0.8-3c1.7-2.9,5.3-3.9,8.2-2.2
			c-2,0.8-3,3.2-2.2,5.2c3.6,7.9,13,11.3,20.8,7.6c7.9-3.6,11.3-13,7.6-20.8c-0.1-0.1-0.1-0.2-0.2-0.3c5.9,12.6,3,27.6-7.2,37
			c-3-7.1-11.3-10.4-18.4-7.4c-3.1,1.3-5.6,3.6-7,6.6c-1.6,3.2-0.3,7.1,2.9,8.7c0.8,0.4,1.6,0.6,2.5,0.7c-5.1,0.1-10.1-1.1-14.6-3.3
			c3.3-0.6,5.4-3.8,4.8-7c-0.6-3.3-3.8-5.4-7-4.8c-2.8,0.6-4.9,3-4.9,5.9c0,3.2,1.3,6.2,3.5,8.5c3,3,4.7,7.1,4.7,11.3
			c0-3.3-2.7-6-6-6c-3.3,0-6,2.7-6,6c0,3.2,1.3,6.2,3.5,8.5c1.4,1.4,2.4,3.1,3,5c1.9,6.4-1.7,13.1-8.1,15c2.8-7.3,1.4-15.6-3.6-21.6
			c-5.3-7.2-5.9-16.8-1.5-24.6c2-3,1.2-7-1.8-9c-3-2-7-1.2-9,1.8c-2,3-1.2,7,1.8,9c0.9,0.6,2,1,3.2,1.1c-4.9,2.8-10.5,4.2-16.2,4.2
			c3.6-0.2,6.3-3.3,6.1-6.9c-0.1-0.9-0.3-1.7-0.7-2.5c-3.5-6.9-11.9-9.7-18.8-6.2c-3.3,1.6-5.8,4.5-7,8c-11-9.4-14.4-24.9-8.3-38
			c-3.9,7.7-0.8,17,6.9,20.9s17,0.8,20.9-6.9c0.1-0.2,0.2-0.3,0.2-0.5c1-1.8,0.3-4-1.5-5C61.3,23.3,61.1,23.2,60.9,23.1z"/>
	</g>
	<g id="XMLID_50_">
		<path id="XMLID_88_" class="st0" d="M12.5,120.7v-12.5H21v2.4h-5.6v2.5h5v2.3h-5v3h6.1v2.4H12.5z"/>
		<path id="XMLID_86_" class="st0" d="M28.5,115.7c0-0.9-0.1-1.5-0.3-1.8c-0.2-0.4-0.6-0.5-1.1-0.5c-0.2,0-0.3,0-0.5,0
			c-0.2,0-0.4,0-0.5,0.1v7.3h-2.7v-9.2c0.2-0.1,0.5-0.1,0.8-0.2c0.3-0.1,0.6-0.1,1-0.2c0.3-0.1,0.7-0.1,1.1-0.1c0.4,0,0.7,0,1.1,0
			c0.7,0,1.2,0.1,1.7,0.3c0.4,0.2,0.8,0.4,1.1,0.6c0.4-0.3,0.8-0.5,1.3-0.7c0.5-0.2,1-0.2,1.4-0.2c0.8,0,1.4,0.1,1.9,0.3
			c0.5,0.2,0.9,0.5,1.2,0.9c0.3,0.4,0.5,0.8,0.6,1.4c0.1,0.5,0.2,1.1,0.2,1.8v5.4h-2.7v-5c0-0.9-0.1-1.5-0.3-1.8
			c-0.2-0.4-0.6-0.5-1.1-0.5c-0.1,0-0.3,0-0.6,0.1c-0.3,0.1-0.5,0.2-0.6,0.3c0.1,0.3,0.1,0.6,0.2,0.9c0,0.3,0,0.6,0,1v5.2h-2.7
			V115.7z"/>
		<path id="XMLID_83_" class="st0" d="M47.7,116c0,0.8-0.1,1.4-0.3,2.1c-0.2,0.6-0.5,1.1-1,1.6c-0.4,0.4-0.9,0.8-1.6,1
			c-0.6,0.2-1.3,0.4-2.1,0.4c-0.3,0-0.7,0-1,0c-0.4,0-0.7-0.1-1-0.1c-0.3,0-0.7-0.1-1-0.2c-0.3-0.1-0.6-0.1-0.8-0.2v-13.3l2.7-0.4
			v4.7c0.3-0.1,0.6-0.2,0.9-0.3c0.3-0.1,0.7-0.1,1-0.1c0.7,0,1.3,0.1,1.8,0.4c0.5,0.2,1,0.6,1.3,1c0.3,0.4,0.6,1,0.8,1.6
			C47.6,114.6,47.7,115.2,47.7,116z M45,115.9c0-1.7-0.6-2.6-1.9-2.6c-0.3,0-0.6,0-0.8,0.1c-0.3,0.1-0.5,0.2-0.7,0.3v4.9
			c0.1,0,0.3,0,0.5,0.1c0.2,0,0.4,0,0.7,0c0.7,0,1.3-0.3,1.7-0.8C44.8,117.4,45,116.8,45,115.9z"/>
		<path id="XMLID_80_" class="st0" d="M49.3,116.1c0-0.8,0.1-1.6,0.4-2.2c0.3-0.6,0.6-1.2,1-1.6c0.4-0.4,0.9-0.7,1.5-1
			c0.5-0.2,1.1-0.3,1.7-0.3c1.3,0,2.4,0.4,3.2,1.2c0.8,0.8,1.2,2,1.2,3.6c0,0.2,0,0.3,0,0.5c0,0.2,0,0.4,0,0.5h-6.1
			c0.1,0.6,0.3,1,0.8,1.3c0.5,0.3,1.1,0.5,1.8,0.5c0.5,0,1,0,1.5-0.1c0.5-0.1,0.9-0.2,1.2-0.3l0.4,2.2c-0.1,0.1-0.3,0.1-0.6,0.2
			c-0.2,0.1-0.5,0.1-0.8,0.2c-0.3,0.1-0.6,0.1-0.9,0.1c-0.3,0-0.7,0.1-1,0.1c-0.9,0-1.6-0.1-2.2-0.4c-0.6-0.3-1.2-0.6-1.6-1
			c-0.4-0.4-0.7-1-0.9-1.6S49.3,116.8,49.3,116.1z M55.7,115c0-0.2-0.1-0.5-0.1-0.7c-0.1-0.2-0.2-0.4-0.3-0.6
			c-0.1-0.2-0.3-0.3-0.5-0.4c-0.2-0.1-0.5-0.2-0.8-0.2c-0.3,0-0.6,0.1-0.8,0.2c-0.2,0.1-0.4,0.2-0.5,0.4c-0.1,0.2-0.3,0.4-0.3,0.6
			c-0.1,0.2-0.1,0.4-0.2,0.7H55.7z"/>
		<path id="XMLID_78_" class="st0" d="M66.1,113.6c-0.2-0.1-0.5-0.1-0.8-0.2c-0.3-0.1-0.7-0.1-1-0.1c-0.2,0-0.4,0-0.6,0
			c-0.2,0-0.4,0.1-0.5,0.1v7.3h-2.7v-9c0.5-0.2,1.1-0.3,1.7-0.5s1.4-0.2,2.2-0.2c0.1,0,0.3,0,0.5,0c0.2,0,0.4,0,0.6,0.1
			c0.2,0,0.4,0.1,0.6,0.1c0.2,0,0.4,0.1,0.5,0.2L66.1,113.6z"/>
		<path id="XMLID_76_" class="st0" d="M71.8,120.9c-0.8,0-1.4-0.1-1.9-0.3s-0.9-0.4-1.2-0.7c-0.3-0.3-0.5-0.6-0.6-1
			c-0.1-0.4-0.2-0.9-0.2-1.4v-10.5l2.7-0.4v10.4c0,0.2,0,0.5,0.1,0.7c0,0.2,0.1,0.4,0.2,0.5c0.1,0.1,0.2,0.2,0.4,0.3
			c0.2,0.1,0.5,0.1,0.8,0.2L71.8,120.9z"/>
		<path id="XMLID_73_" class="st0" d="M76.6,108.5c0,0.5-0.2,0.9-0.5,1.2c-0.3,0.3-0.7,0.4-1.1,0.4c-0.4,0-0.8-0.1-1.1-0.4
			c-0.3-0.3-0.5-0.7-0.5-1.2c0-0.5,0.2-0.9,0.5-1.2c0.3-0.3,0.7-0.4,1.1-0.4c0.4,0,0.8,0.1,1.1,0.4C76.5,107.6,76.6,108,76.6,108.5z
			 M76.4,120.7h-2.7v-9.5h2.7V120.7z"/>
		<path id="XMLID_71_" class="st0" d="M78.9,111.6c0.5-0.1,1-0.3,1.8-0.4c0.7-0.1,1.5-0.2,2.3-0.2c0.8,0,1.5,0.1,2,0.3
			c0.5,0.2,1,0.5,1.3,0.9c0.3,0.4,0.5,0.8,0.7,1.4c0.1,0.5,0.2,1.1,0.2,1.8v5.4h-2.7v-5c0-0.9-0.1-1.5-0.3-1.8
			c-0.2-0.4-0.7-0.5-1.3-0.5c-0.2,0-0.4,0-0.6,0c-0.2,0-0.4,0-0.6,0.1v7.3h-2.7V111.6z"/>
		<path id="XMLID_68_" class="st0" d="M89.1,116.1c0-0.8,0.1-1.6,0.4-2.2c0.3-0.6,0.6-1.2,1-1.6c0.4-0.4,0.9-0.7,1.5-1
			c0.5-0.2,1.1-0.3,1.7-0.3c1.3,0,2.4,0.4,3.2,1.2c0.8,0.8,1.2,2,1.2,3.6c0,0.2,0,0.3,0,0.5c0,0.2,0,0.4,0,0.5h-6.1
			c0.1,0.6,0.3,1,0.8,1.3c0.5,0.3,1.1,0.5,1.8,0.5c0.5,0,1,0,1.5-0.1c0.5-0.1,0.9-0.2,1.2-0.3l0.4,2.2c-0.1,0.1-0.3,0.1-0.6,0.2
			c-0.2,0.1-0.5,0.1-0.8,0.2c-0.3,0.1-0.6,0.1-0.9,0.1c-0.3,0-0.7,0.1-1,0.1c-0.9,0-1.6-0.1-2.2-0.4c-0.6-0.3-1.2-0.6-1.6-1
			c-0.4-0.4-0.7-1-0.9-1.6S89.1,116.8,89.1,116.1z M95.4,115c0-0.2-0.1-0.5-0.1-0.7c-0.1-0.2-0.2-0.4-0.3-0.6
			c-0.1-0.2-0.3-0.3-0.5-0.4c-0.2-0.1-0.5-0.2-0.8-0.2c-0.3,0-0.6,0.1-0.8,0.2c-0.2,0.1-0.4,0.2-0.5,0.4c-0.1,0.2-0.3,0.4-0.3,0.6
			c-0.1,0.2-0.1,0.4-0.2,0.7H95.4z"/>
		<path id="XMLID_66_" class="st0" d="M108,118.6c0.4,0,0.7,0,1-0.1c0.3-0.1,0.5-0.2,0.6-0.3c0.2-0.1,0.3-0.2,0.3-0.4
			c0.1-0.2,0.1-0.3,0.1-0.5c0-0.4-0.2-0.8-0.6-1c-0.4-0.3-1-0.6-2-0.9c-0.4-0.1-0.8-0.3-1.2-0.5c-0.4-0.2-0.8-0.4-1.1-0.7
			c-0.3-0.3-0.6-0.6-0.8-1c-0.2-0.4-0.3-0.9-0.3-1.5c0-0.6,0.1-1.1,0.3-1.6c0.2-0.5,0.5-0.9,0.9-1.2c0.4-0.3,0.9-0.6,1.4-0.8
			c0.6-0.2,1.2-0.3,1.9-0.3c0.8,0,1.6,0.1,2.2,0.3s1.1,0.4,1.5,0.6l-0.8,2.2c-0.3-0.2-0.7-0.3-1.2-0.5c-0.4-0.1-0.9-0.2-1.5-0.2
			c-0.7,0-1.2,0.1-1.5,0.3c-0.3,0.2-0.4,0.5-0.4,0.9c0,0.2,0.1,0.4,0.2,0.6c0.1,0.2,0.3,0.3,0.5,0.4c0.2,0.1,0.4,0.2,0.7,0.3
			c0.3,0.1,0.5,0.2,0.9,0.3c0.7,0.2,1.2,0.5,1.7,0.7c0.5,0.2,0.9,0.5,1.2,0.8c0.3,0.3,0.6,0.7,0.7,1.1c0.2,0.4,0.2,0.9,0.2,1.5
			c0,1.2-0.4,2.1-1.2,2.7c-0.8,0.6-2.1,1-3.7,1c-0.6,0-1.1,0-1.5-0.1c-0.4-0.1-0.8-0.1-1.2-0.2c-0.3-0.1-0.6-0.2-0.9-0.3
			c-0.2-0.1-0.5-0.2-0.6-0.3l0.8-2.2c0.4,0.2,0.8,0.4,1.4,0.6C106.6,118.5,107.2,118.6,108,118.6z"/>
		<path id="XMLID_64_" class="st0" d="M114.9,108.9l2.7-0.4v2.8h3.2v2.2h-3.2v3.3c0,0.6,0.1,1,0.3,1.4c0.2,0.3,0.6,0.5,1.2,0.5
			c0.3,0,0.6,0,0.9-0.1c0.3-0.1,0.6-0.1,0.8-0.2l0.4,2.1c-0.3,0.1-0.7,0.2-1.1,0.3c-0.4,0.1-0.9,0.1-1.5,0.1c-0.7,0-1.3-0.1-1.8-0.3
			c-0.5-0.2-0.9-0.5-1.2-0.8c-0.3-0.4-0.5-0.8-0.6-1.3c-0.1-0.5-0.2-1.1-0.2-1.7V108.9z"/>
		<path id="XMLID_62_" class="st0" d="M131.1,120.4c-0.5,0.1-1,0.3-1.8,0.4c-0.7,0.1-1.5,0.2-2.3,0.2c-0.8,0-1.5-0.1-2-0.3
			c-0.5-0.2-1-0.5-1.3-0.9c-0.3-0.4-0.5-0.9-0.7-1.4c-0.1-0.5-0.2-1.1-0.2-1.8v-5.3h2.7v5c0,0.9,0.1,1.5,0.3,1.9
			c0.2,0.4,0.7,0.6,1.3,0.6c0.2,0,0.4,0,0.6,0c0.2,0,0.4,0,0.6-0.1v-7.3h2.7V120.4z"/>
		<path id="XMLID_59_" class="st0" d="M142,120.4c-0.2,0.1-0.5,0.1-0.8,0.2c-0.3,0.1-0.6,0.1-1,0.2c-0.3,0-0.7,0.1-1,0.1
			c-0.4,0-0.7,0-1,0c-0.8,0-1.5-0.1-2.1-0.3c-0.6-0.2-1.1-0.6-1.6-1c-0.4-0.4-0.7-0.9-1-1.6c-0.2-0.6-0.3-1.3-0.3-2.1
			c0-0.8,0.1-1.5,0.3-2.1c0.2-0.6,0.5-1.1,0.8-1.6c0.4-0.4,0.8-0.8,1.3-1c0.5-0.2,1.1-0.3,1.8-0.3c0.4,0,0.7,0,1,0.1
			c0.3,0.1,0.6,0.2,0.9,0.3v-4.3l2.7-0.4V120.4z M135.9,115.9c0,0.8,0.2,1.5,0.6,2c0.4,0.5,0.9,0.8,1.7,0.8c0.2,0,0.5,0,0.7,0
			c0.2,0,0.4,0,0.5-0.1v-4.9c-0.2-0.1-0.4-0.2-0.7-0.3c-0.3-0.1-0.5-0.1-0.8-0.1C136.6,113.3,135.9,114.2,135.9,115.9z"/>
		<path id="XMLID_56_" class="st0" d="M147.5,108.5c0,0.5-0.2,0.9-0.5,1.2c-0.3,0.3-0.7,0.4-1.1,0.4c-0.4,0-0.8-0.1-1.1-0.4
			c-0.3-0.3-0.5-0.7-0.5-1.2c0-0.5,0.2-0.9,0.5-1.2c0.3-0.3,0.7-0.4,1.1-0.4c0.4,0,0.8,0.1,1.1,0.4
			C147.3,107.6,147.5,108,147.5,108.5z M147.2,120.7h-2.7v-9.5h2.7V120.7z"/>
		<path id="XMLID_53_" class="st0" d="M158.7,116c0,0.7-0.1,1.4-0.3,2.1c-0.2,0.6-0.5,1.2-0.9,1.6c-0.4,0.4-0.9,0.8-1.5,1
			c-0.6,0.2-1.2,0.4-1.9,0.4c-0.7,0-1.3-0.1-1.9-0.4c-0.6-0.2-1.1-0.6-1.5-1c-0.4-0.4-0.7-1-1-1.6c-0.2-0.6-0.3-1.3-0.3-2.1
			c0-0.7,0.1-1.4,0.4-2c0.2-0.6,0.6-1.1,1-1.6c0.4-0.4,0.9-0.8,1.5-1c0.6-0.2,1.2-0.4,1.9-0.4c0.7,0,1.3,0.1,1.9,0.4
			c0.6,0.2,1.1,0.6,1.5,1s0.7,1,1,1.6C158.5,114.5,158.7,115.2,158.7,116z M155.9,116c0-0.8-0.2-1.5-0.5-2c-0.3-0.5-0.8-0.7-1.4-0.7
			s-1.1,0.2-1.4,0.7c-0.3,0.5-0.5,1.1-0.5,2c0,0.8,0.2,1.5,0.5,2c0.3,0.5,0.8,0.7,1.4,0.7s1.1-0.2,1.4-0.7
			C155.7,117.5,155.9,116.8,155.9,116z"/>
		<path id="XMLID_51_" class="st0" d="M163.5,118.8c0.5,0,0.8,0,1-0.1c0.2-0.1,0.3-0.3,0.3-0.6c0-0.2-0.1-0.4-0.4-0.6
			c-0.3-0.2-0.7-0.3-1.2-0.6c-0.4-0.2-0.8-0.3-1.1-0.5c-0.3-0.2-0.6-0.4-0.9-0.6c-0.2-0.2-0.4-0.5-0.6-0.8c-0.1-0.3-0.2-0.7-0.2-1.2
			c0-0.9,0.3-1.6,1-2.1c0.7-0.5,1.6-0.8,2.7-0.8c0.6,0,1.1,0.1,1.7,0.2c0.5,0.1,1,0.2,1.3,0.3l-0.5,2.1c-0.3-0.1-0.7-0.2-1-0.3
			c-0.4-0.1-0.8-0.1-1.2-0.1c-0.8,0-1.3,0.2-1.3,0.7c0,0.1,0,0.2,0.1,0.3c0,0.1,0.1,0.2,0.2,0.2c0.1,0.1,0.3,0.2,0.4,0.3
			c0.2,0.1,0.4,0.2,0.7,0.3c0.6,0.2,1.1,0.4,1.5,0.6c0.4,0.2,0.7,0.4,0.9,0.7c0.2,0.2,0.4,0.5,0.5,0.8c0.1,0.3,0.1,0.6,0.1,1
			c0,0.9-0.4,1.6-1.1,2.1c-0.7,0.5-1.7,0.7-3,0.7c-0.8,0-1.5-0.1-2.1-0.2c-0.6-0.1-0.9-0.3-1.2-0.4l0.5-2.2c0.5,0.2,0.9,0.3,1.4,0.4
			C162.5,118.8,163,118.8,163.5,118.8z"/>
	</g>
</g>
</svg>
