<svg width="18" height="13" viewBox="0 0 18 13" fill="none" xmlns="http://www.w3.org/2000/svg">
<path fill-rule="evenodd" clip-rule="evenodd" d="M15.1277 0H2.38859C1.07305 0 0 0.862537 0 1.92V10.88C0 11.9375 1.07305 12.8 2.38859 12.8H15.1277C16.4433 12.8 17.5163 11.9375 17.5163 10.88V1.92C17.5163 0.862537 16.4433 0 15.1277 0ZM3.70683 1.86451L8.75815 5.39289L13.8095 1.86451C14.1937 1.59612 14.7434 1.66306 15.0372 2.01403C15.331 2.365 15.2577 2.86709 14.8735 3.13548L9.29016 7.03548C8.97613 7.25483 8.54016 7.25483 8.22613 7.03548L2.6428 3.13548C2.25857 2.86709 2.18528 2.365 2.4791 2.01403C2.77292 1.66306 3.3226 1.59612 3.70683 1.86451Z" fill="#444444"/>
</svg>
